<svg width="2524" height="934" viewBox="0 0 2524 934" fill="none" xmlns="http://www.w3.org/2000/svg">
<path d="M1191.18 164.788C1193.99 161.801 1196.84 158.855 1199.72 155.954C1230.98 124.162 1269.59 115.459 1312.38 122.334C1387.06 134.339 1402.98 192.242 1401.68 257.783C1400.51 317.105 1403.23 377.113 1400.71 436.538C1369.75 436.036 1338.76 435.636 1307.82 435.309C1293.3 435.158 1298.02 403.677 1297.96 393.472C1297.6 344.106 1300.88 294.479 1297.62 245.207C1294.18 193.18 1217.1 199.452 1212.13 246.782C1207.68 296.927 1209.79 350.916 1210 401.335C1210.13 412.977 1210.21 424.623 1210.22 436.264C1177.83 437.452 1142.5 435.224 1107.81 436.37C1107.37 395.365 1107.23 354.356 1107.41 313.347C1107.4 293.255 1110.69 234.765 1098.05 220.544C1079.3 199.456 1026.96 206.454 1021.75 240.739C1012.22 303.542 1022.84 370.091 1018.15 433.028L1017.89 436.297C984.445 437.199 950.757 435.359 915.668 436.534C913.281 337.1 915.721 226.595 915.721 126.631C948.39 126.439 981.059 126.505 1013.72 126.827L1014.15 157.537C1039.21 132.944 1053 125.154 1088.61 121.253C1130.43 115.067 1165.39 132.295 1191.18 164.788Z" fill="#EF2428"/>
<path d="M216.121 0.941195C283.478 -4.63686 351.199 20.552 394.909 72.4765C374.51 100.432 349.113 119.194 332.077 143.951C315.355 130.269 300.111 116.501 279.769 108.193C222.805 82.9349 141.481 106.455 121.523 170.458C79.408 305.498 186.774 384.803 310.149 327.198C309.663 312.831 309.536 298.451 309.773 284.075C285.404 283.161 257.498 283.794 232.839 283.839L232.558 196.838C257.253 197.765 285.053 197.295 310.006 197.365C341.369 197.707 372.735 197.287 404.074 196.104C405.204 253.651 403.919 315.414 403.727 373.39C401.797 376.12 399.765 378.776 397.639 381.355C366.745 418.234 295.948 441.628 249.067 444.411C184.355 449.014 123.016 433.904 72.9404 391.487C-19.8137 312.921 -22.8414 157.62 56.651 68.898C99.8636 20.6623 152.086 4.04646 216.121 0.941195Z" fill="#EF2428"/>
<path d="M666.989 0.910026C731.804 -5.12913 811.198 18.905 851.493 72.5556C832.058 97.4222 807.734 119.743 786.038 143.516C743.988 103.963 691.656 83.7851 634.908 108.191C541.513 148.359 544.765 307.646 644.199 339.747C688.012 353.89 726.205 346.011 767.141 326.902C766.7 312.632 766.582 298.355 766.79 284.081C742.246 283.094 714.066 283.653 689.22 283.628C689.073 254.979 689.114 226.33 689.338 197.68C713.515 196.762 740.809 197.199 765.211 197.068C797.165 197.382 829.12 197.342 861.07 196.95C860.87 233.014 861.001 269.081 861.47 305.145C861.58 319.345 863.008 346.505 860.756 359.289C850.971 414.8 752.884 440.148 708.406 444.192C645.709 449.893 580.025 433.864 532.377 393.659C488.144 356.6 460.98 303.068 457.198 245.488C447.241 107.236 528.721 11.0011 666.989 0.910026Z" fill="#EF2428"/>
<path d="M1567.19 121.245C1578.1 120.612 1589.03 120.273 1599.96 120.229C1636.2 120.433 1674.31 128.814 1700.05 156.28C1737.14 195.857 1729.82 259.027 1729.86 309.258C1730.19 351.52 1730.04 393.786 1729.43 436.044C1717.01 436.823 1639.17 436.974 1632.9 433.15C1631.04 423.476 1632.58 417.579 1633.98 407.868C1614.1 426.499 1593.92 437.762 1566.97 442.307C1534.78 447.861 1501.7 440.373 1475.04 421.505L1473.44 420.081C1452.32 401.074 1443.47 384.315 1442.08 355.678C1436.57 242.591 1548.62 245.292 1628.88 245.227C1628.13 237.539 1626.24 228.627 1624.83 220.935C1591.97 182.252 1537.83 198.199 1500.59 221.494C1488 206.172 1469.2 174.63 1458.96 157.259C1491.42 136.861 1529.4 125.66 1567.19 121.245ZM1588.01 371.057C1627.14 361.583 1627.64 341.335 1629.54 306.079C1615.03 306.165 1598.12 305.863 1583.83 306.691C1526.75 312.992 1522.28 375.191 1588.01 371.057Z" fill="#EF2428"/>
<path d="M2367.92 626.425L2368.83 627.082L2368.39 630.057C2327.32 677.04 2260.71 724.704 2207.07 757.564C1922.02 932.198 1542.23 961.112 1217.95 913.579C1165.65 905.887 1113.66 896.244 1062.08 884.668C1034.73 878.262 1008.18 869.66 980.793 863.327L936.605 850.412C950.846 850.433 1029.3 863.086 1048.39 865.694C1117.12 875.328 1186.17 882.506 1255.41 887.21C1632.94 912.338 2050.76 843.296 2367.92 626.425Z" fill="#181718"/>
<path d="M2076.02 51.38C2107.63 50.5313 2141.95 51.1434 2173.77 51.0985C2175.1 73.9085 2175.32 103.525 2173.1 126.147C2195.58 125.992 2219.1 126.576 2241.67 126.804C2243.81 155.857 2244.49 185 2243.73 214.123C2225.45 215.314 2193.64 214.311 2174.5 214.225C2174.96 250.321 2173.26 286.687 2174.22 322.771C2175.38 365.877 2203.37 359.242 2235.13 356.402C2237.08 380.306 2239.24 404.193 2241.62 428.06C2241.81 432.198 2242 430.541 2239.96 434.528C2227.49 442.24 2206.54 442.272 2192.19 443.023C2147.5 447.222 2085.35 424.237 2076.74 374.324C2068.58 326.99 2072.63 263.546 2073.04 214.543C2057.1 214.368 2041.93 214.425 2026.04 212.756C2026.95 184.188 2027.7 155.617 2028.26 127.041C2042.01 126.18 2059.37 126.441 2073.41 126.257C2073.7 112.396 2072.58 60.1123 2076.02 51.38Z" fill="#EF2428"/>
<path d="M1967.09 121.257C1976.32 120.432 1979.02 119.429 1987.26 122.791C1993.32 130.609 1991.21 209.249 1991.21 224.698C1984.46 224.208 1977.7 223.787 1970.93 223.441C1883.56 219.164 1886.32 263.034 1885.84 331.627L1884.93 436.198C1872.24 436.19 1787.87 436.945 1783 434.093C1780.74 339.446 1781.93 221.968 1783.48 127.23C1803.06 127.973 1870.89 122.326 1881.13 131.095C1884.17 141.247 1883.11 153.056 1882.95 163.898C1908.16 133.302 1928.77 125.268 1967.09 121.257Z" fill="#EF2428"/>
<path d="M2462.22 344.815C2485.98 344.537 2497.44 362.634 2487.27 383.433C2481.59 387.403 2484.6 386.787 2478.01 385.636C2471.65 380.719 2471.02 373.003 2469.05 364.899C2463.19 373.154 2458.73 381.878 2453.86 390.753C2461.01 424.225 2496.55 503.983 2494.33 529.127C2475.9 545.804 2442.2 557.634 2419.3 569.247C2405.94 576.024 2370.24 596.186 2356.93 588.38L2356.84 583.7C2364.63 566.876 2425.84 544.119 2446.73 534.938C2456.64 531.033 2469.49 527.63 2474.35 518.391C2473.73 509.843 2474.89 513.915 2469.63 506.101C2453.56 522.778 2380.73 554.108 2354.84 567.961C2331.84 533.13 2309.99 497.552 2289.34 461.281C2334.36 437.255 2392.83 415.848 2432.51 392.614C2441.34 373.562 2446.35 358.586 2462.22 344.815ZM2316.88 468.189L2334.74 497.785C2344.84 493.353 2357.87 488.024 2367.38 483.075C2364.47 477.137 2354.82 454.792 2350.65 452.846C2340.03 457.6 2327.06 463.031 2316.88 468.189ZM2342.79 510.5C2346.56 517.604 2357.09 538.667 2361.81 543.662L2389.92 529.984C2386.9 523.769 2376.9 500.674 2372.35 497.756L2342.79 510.5ZM2435.71 414.175L2418.86 421.716C2421.32 428.995 2426.47 448.337 2431.65 451.94L2432.86 451.789L2449.45 449.81C2450.98 440.066 2443.6 425.788 2439.31 416.636L2435.71 414.175ZM2390.4 490.007C2392.77 495.181 2403.16 520.171 2406.79 521.709C2415.27 517.322 2423.06 513.083 2431.93 509.5C2429.23 502.277 2422.46 478.472 2416.14 477.056C2407.96 481.246 2398.69 486.294 2390.4 490.007ZM2452.26 458.93C2445.94 462.419 2440.71 463.488 2439.82 469.797C2437.94 483.124 2441.65 488.975 2448.62 499.025L2456.28 502.228L2464.9 500.009C2468.91 490.554 2458.94 464.708 2452.26 458.93ZM2400.61 430.44L2371.57 444.403C2374.55 452.32 2380.54 471.147 2385.84 476.019C2395.29 471.376 2405.3 466.23 2414.88 462.023C2411.98 454.482 2405.61 434.402 2400.61 430.44Z" fill="#181718"/>
<path d="M1198.21 530.944L1237.79 532.695C1238.24 595.751 1238.36 658.811 1238.14 721.871C1223.48 722.279 1208.23 721.794 1193.51 721.533C1193.73 682.05 1194.54 642.571 1195.94 603.108C1181.63 624.506 1157.63 661.782 1141.17 680.32C1121.58 665.001 1098.84 627.399 1084.99 605.756L1083.32 605.985L1083.12 613.66L1083.28 722.304C1067.64 721.659 1053.25 721.928 1037.59 722.21C1040.13 663.104 1038.3 591.83 1038.3 531.814C1052.09 531.475 1069.08 532.36 1083.11 532.74C1100.77 555.032 1124.19 594.111 1139.37 618.969C1150.63 599.224 1183.01 545.553 1198.21 530.944Z" fill="#189046"/>
<path d="M603.347 582.167C633.706 578.691 664.097 585.093 674.604 617.178C696.692 684.625 657.283 752.063 581.932 713.045L581.348 734.79L581.401 769.446L536.602 769.038L536.638 582.861C549.892 582.946 565.887 582.604 578.786 584.277L579.684 592.197C583.217 592.858 594.708 585.464 601.657 582.799L603.347 582.167ZM618.857 687.469C647.379 665.009 642.022 616.39 597.866 616.321C586.168 623.703 582.397 627.718 580.361 641.673C575.411 675.631 585.972 690.872 618.857 687.469Z" fill="#189046"/>
<path d="M270.127 528.989C299.36 528.005 315.327 530.074 343.066 540.12C338.541 550.468 334.158 564.485 330.396 575.466C311.487 568.672 254.527 552.374 253.25 586.218C261.742 611.244 342.217 607.347 348.044 652.681C354.312 701.407 326.54 719.842 281.642 726.457C249.569 726.812 228.795 720.887 200.199 707.609C205.549 695.665 211.519 686.276 218.288 675.116C238.63 683.358 297.915 702.916 302.049 667.677C292.79 645.528 251.279 642.815 230.942 628.733C200.848 607.894 196.759 582.643 218.549 553.055C231.884 534.95 249.492 531.902 270.127 528.989Z" fill="#189046"/>
<path d="M1685.26 525.087C1697.8 524.087 1716.66 524.377 1729.69 524.193C1728.59 548.668 1729.77 571.115 1728.2 596.337C1785.68 556.197 1824.67 586.511 1821.16 650.526C1819.92 673.189 1820.41 698.978 1819.97 721.959C1803.39 721.282 1792.01 721.437 1775.4 722.298L1776.35 672.83C1776.43 656.524 1780.32 615.87 1755.58 617.747C1722.63 620.249 1727.69 653.182 1727.55 677.221C1727.46 692.106 1728.03 707.478 1729.53 722.265L1683.33 721.168C1685.86 662.653 1680.09 577.261 1685.26 525.087Z" fill="#189046"/>
<path d="M1898.21 581.884C1962.95 575.629 1982.64 607.947 1985 667.228C1952.4 666.629 1919.8 666.514 1887.2 666.886C1913.87 716.684 1942.67 678.405 1962.15 686.99C1969.44 696.151 1972.22 700.036 1977.99 710.18C1949.29 727.118 1913.44 733.647 1882.47 718.52C1865.01 710.106 1851.94 694.657 1846.55 676.034C1833.85 633.34 1854.22 592.918 1898.21 581.884ZM1887.9 638.783L1923.44 639.134C1932.84 638.701 1933.27 640.264 1939.54 635.731C1940.47 620.927 1922.32 614.512 1909.74 614.12C1895.94 620.959 1894.43 624.591 1887.9 638.783Z" fill="#189046"/>
<path d="M755.52 581.911C818.474 578.223 835.445 609.606 836.294 667.459C818.96 667.288 754.994 664.566 742.185 667.239C739.459 709.893 803.266 681.317 815.536 686.87L817.323 689.143C822.367 695.603 829.467 703.017 828.48 710.896C821.51 716.642 811.378 720.151 802.434 722.632C724.472 744.242 666.932 678.885 710.859 607.235C720.464 591.574 737.819 585.18 755.52 581.911ZM779.991 639.565C789.123 638.712 788.148 640.357 792.791 635.305C790.959 619.75 773.152 615.025 759.499 616.265C751.24 621.827 749.363 622.423 744.054 630.461L744.082 634.929C752.296 641.703 768.982 639.74 779.991 639.565Z" fill="#189046"/>
<path d="M1319.17 582.118C1414.29 573.781 1397.49 655.11 1397.34 722.161C1376.11 722.401 1365.23 722.006 1344.65 717.542L1346.75 716.113C1322.36 728.767 1302.3 729.583 1278.85 713.767C1270.92 705.5 1267.68 698.106 1266.97 686.628C1263.6 632.451 1318.7 637.89 1356.54 638.686C1340.46 605.528 1317.08 611.734 1287.81 624.535L1272.22 596.481C1289.07 588.891 1300.97 584.554 1319.17 582.118ZM1341.02 691.492C1348.95 686.477 1349.11 686.228 1353.65 678.165C1354.91 659.978 1335.28 662.736 1323 663.43C1316.17 668.42 1315.61 668.543 1312.13 675.961C1312.3 692.891 1328.15 692.495 1341.02 691.492Z" fill="#189046"/>
<path d="M372.933 581.728L416.039 581.895C417.206 607.137 405.446 735.2 462.643 672.878C463.34 643.515 462.847 612.633 462.814 583.152L506.202 583.368L506.345 639.165C506.329 666.259 506.68 693.358 507.385 720.444C499.722 720.706 492.055 720.889 484.388 720.991C456.791 721.228 467.127 715.177 461.28 709.423C354.362 772.83 372.578 641.511 372.933 581.728Z" fill="#189046"/>
<path d="M1593.42 581.821C1626.43 579.622 1638.15 580.169 1665.31 598.335C1659.17 608.177 1651.94 618.211 1645.31 627.796C1626.95 618.885 1607.87 613.323 1590.04 627.984C1575.96 639.548 1579.91 671.442 1592.14 682.422C1604.21 693.264 1629.55 683.54 1644.13 682.814C1649.92 682.528 1652.99 688.686 1656.33 692.86C1661.58 700.413 1663.93 701.633 1662.83 708.583C1653.55 716.274 1642.66 721.791 1630.98 724.737C1609.55 730.021 1586.91 726.533 1568.07 715.046C1515.04 682.512 1523.63 596.503 1593.42 581.821Z" fill="#189046"/>
<path d="M864.118 582.155L866.456 582.167C871.414 582.204 898.464 581.71 901.904 585.146C903.352 586.595 899.231 592.915 904.176 597.93C932.638 590.802 957.554 539.795 954.991 624.29C929.508 623.597 908.008 621.316 905.45 654.466L904.935 722.472C888.364 721.003 876.209 720.68 859.519 720.651C858.365 689.929 860.678 619.769 861.041 585.55C862.07 584.42 863.094 583.289 864.118 582.155Z" fill="#189046"/>
<path d="M1430.9 582.044C1435.7 582.04 1464.52 581.489 1468.69 584.635C1470.2 585.766 1466.59 595.04 1471.4 599.659C1492.01 581.921 1492.1 581.995 1520.57 580.763C1521.9 594.212 1521.31 609.902 1521.16 623.596C1495.85 621.266 1471.23 626.191 1470.68 656.505C1470.45 678.283 1470.76 700.624 1470.84 722.446C1452.4 721.026 1443.94 720.626 1425.64 722.373C1426.46 700.795 1422.97 591.348 1430.9 582.044Z" fill="#189046"/>
<path d="M1938.68 531.286L1962.92 530.47C1950.69 543.556 1934.94 562.983 1918.14 567.243C1908.71 567.656 1898.9 567.684 1889.43 567.855C1905.98 546.171 1910.58 532.416 1938.68 531.286Z" fill="#189046"/>
<path d="M2510.25 367.014C2541.45 377.725 2511.56 405.256 2498.79 416.853C2492.16 413.356 2490.09 413.654 2487.54 408.088C2494.25 395.761 2502.93 372.665 2510.25 367.014Z" fill="#181718"/>
<path d="M2392.78 590.558C2397.96 588.661 2403.77 589.73 2407.95 593.349C2412.12 596.973 2414 602.575 2412.85 607.978C2411.69 613.384 2407.7 617.734 2402.42 619.342C2394.55 621.737 2386.21 617.436 2383.6 609.638C2380.99 601.841 2385.06 593.386 2392.78 590.558Z" fill="#181718"/>
<path d="M2473.19 551.551C2481.35 551.086 2488.41 557.203 2489.1 565.352C2489.79 573.5 2483.88 580.723 2475.76 581.649C2470.29 582.269 2464.92 579.874 2461.73 575.394C2458.54 570.909 2458.04 565.05 2460.43 560.092C2462.81 555.134 2467.7 551.861 2473.19 551.551Z" fill="#181718"/>
</svg>
