<svg width="2538" height="982" viewBox="0 0 2538 982" fill="none" xmlns="http://www.w3.org/2000/svg">
<path d="M1057.02 1.19029L1059.55 1.04332C1089.73 -0.625524 1127.4 0.553279 1158.46 0.561446L1331.33 0.637632L1425.3 0.517911C1454.53 0.430794 1487.58 -4.32805 1510.11 16.7979C1525.76 31.4636 1526.01 53.9726 1526.03 73.9089C1526.05 93.3633 1525.97 112.488 1525.96 131.779L1525.87 274.791C1525.82 300.123 1525.6 325.665 1525.88 350.907C1526.04 365.548 1534.54 372.028 1548.67 372.297C1574.62 372.787 1601.45 372.539 1627.5 372.564L1785.09 372.597L2261.47 372.626L2410.07 372.55C2434.79 372.534 2461.07 371.927 2485.69 373.304C2499.34 374.35 2509.88 379.678 2519.76 388.765C2540.25 407.599 2537.27 430.864 2537.33 456.325L2537.42 697.408L2537.49 767.23C2537.49 779.664 2537.91 793.483 2536.62 805.755C2534.12 827.63 2508.2 850.408 2486.36 851.517C2450.94 853.313 2413.23 852.617 2377.57 852.524L2179.74 852.388L1498.91 851.661L542.483 853.008L226.048 853.27C171.997 853.275 118.005 853.686 63.8754 852.796C36.6542 852.347 5.24348 835.626 1.82766 805.921C-0.863448 782.52 0.238588 755.736 0.230149 731.915L0.220885 592.74L0.153921 486.337C0.119619 473.31 0.475981 458.59 0.0831359 445.718C-2.42612 363.498 52.2412 372.338 113.275 372.48L229.364 372.673L767.581 372.586L913.443 372.605C933.602 372.599 977.624 373.762 995.91 370.451L998.075 370.051C1003.66 365.516 1005.01 363.765 1009.54 358.089C1013.8 256.257 1006.78 151.454 1010.85 49.3663C1011.94 21.9597 1031.92 6.28122 1057.02 1.19029ZM935.481 662.728C940.038 662.687 954.157 662.817 957.865 662.123L960.132 647.226C951.845 647.275 943.161 647.188 934.917 647.425L935.481 662.728Z" fill="#EE322F"/>
<path d="M1067.75 35.2486C1091.4 33.6423 1128.12 34.7503 1152.53 34.7639L1309.37 34.7667C1358.75 34.7558 1408.17 34.5598 1457.55 34.7748C1474.67 34.8483 1481.84 40.5954 1490.44 54.8255C1491.95 77.6612 1491.23 109.835 1491.29 133.346L1491.5 273.814C1491.48 300.053 1490.69 326.55 1491.63 352.748C1492.51 377.364 1501.32 394.415 1526.06 402.579C1544.76 408.754 1676.03 405.381 1703.84 405.394L2223.89 405.364L2387.41 405.381C2415.45 405.373 2443.71 405.043 2471.64 405.786C2481.88 406.059 2493.56 410.605 2498.84 419.412C2501.67 424.135 2503.24 438.845 2503.21 444.556C2502.81 523.555 2503.14 602.552 2503.05 681.548L2502.97 755.552C2503.01 770.571 2506.52 798.779 2495.36 809.97C2489.67 815.685 2476.66 819.08 2468.7 819.178C2437.07 819.559 2405.38 818.854 2373.72 818.919L2147.04 818.832L1469.49 818.277L407.403 820.06L161.468 820.242C125.847 820.248 86.6244 821.68 51.3867 818.2C27.8936 815.881 34.1424 757.422 34.1486 740.366L34.1837 641.003C34.2137 574.361 34.1666 507.733 34.2169 441.077C34.2278 426.4 38.5053 409.641 56.1738 407.137C75.5822 404.384 98.7326 405.46 118.547 405.462L237.094 405.509L743.91 405.457L904.577 405.5C933.669 405.571 962.679 405.933 991.86 405.389C1013.78 404.98 1036.55 394.981 1043.55 372.439C1047.19 360.76 1044.57 341.619 1045.43 329.019C1045.73 313.306 1045.41 296.909 1045.4 281.105L1045.39 113.039C1045.38 94.9131 1043.32 70.1908 1047.24 53.143C1049.31 44.1373 1059.97 38.9456 1067.75 35.2486ZM935.476 662.728C940.034 662.688 954.152 662.818 957.86 662.124L960.128 647.227C951.841 647.276 943.156 647.189 934.913 647.426L935.476 662.728Z" fill="#FEFEFE"/>
<path d="M1348.36 471.261C1363.82 471.063 1420.83 470.034 1432.52 474.199L1431.9 475.653C1419.79 479.293 1413.41 478.865 1400.99 479.698C1397.86 559.835 1404.04 642.989 1400 723.279C1398.43 754.412 1411.57 745.51 1431.97 749.746L1432.86 751.638L1430.72 753.511C1415.15 755.689 1305.58 756.223 1293.46 752.316L1293.55 750.968C1301.91 747.342 1310.14 747.574 1319.43 746.732C1319.94 712.977 1319.28 678.544 1319.38 644.663C1320.05 593.803 1319.84 542.935 1318.75 492.082C1299.38 573.714 1271.04 673.967 1247.52 755.06C1234.81 755.025 1222.1 754.921 1209.39 754.75C1189.7 698.028 1171.72 634.206 1153.59 576.429C1144.74 550.9 1138.4 522.388 1128.06 497.329C1128.01 526.657 1125.81 723.725 1130.78 736.648C1135.35 748.532 1153.19 747.552 1163.67 751.649L1164.02 753.016C1150.08 756.244 1102.55 754.638 1085.8 754.497C1082.84 754.472 1082.48 753.065 1081.44 751.477C1084.7 745.406 1114.95 751.113 1115.01 724.626C1115.18 644.829 1118.99 560.246 1115.49 480.733C1108.68 479.031 1090.76 477.833 1082.41 476.807L1081.53 474.542C1085.22 471.204 1190.62 473.115 1204.81 473.156C1225.11 536.665 1241.79 602.196 1261.84 664.902C1268.17 635.943 1277.62 603.481 1285.44 574.746L1313.1 471.915L1348.36 471.261Z" fill="#EE322F"/>
<path d="M1162.57 95.5383C1173.95 95.5192 1252.67 93.4965 1258.31 97.8169L1258.52 103.085C1255.24 105.919 1235.08 105.6 1228.98 105.837C1228.62 144 1228.62 182.168 1228.97 220.334C1256.71 199.693 1303.97 156.719 1323.65 126.647C1325.95 123.144 1327.25 115.799 1325.07 112.006C1319.24 101.882 1303.49 105.941 1291.53 102.456L1290.51 100.379C1291.43 98.9767 1293.85 96.434 1295.48 96.3904C1329.7 95.473 1364.24 96.0773 1398.54 95.6962C1402.45 95.6554 1406.05 97.3787 1406.84 101.329C1403.55 104.106 1390.94 104.95 1385.65 105.884C1375.63 107.585 1366 111.1 1357.23 116.253C1338.76 127.222 1301.13 166.583 1288.88 184.921C1295.13 197.477 1302.39 209.292 1310.08 221.039C1344.72 273.998 1378.65 327.488 1413.5 380.287C1415.93 383.973 1418.27 383.257 1422.19 383.559C1429.38 383.355 1435.21 381.915 1438.68 389.633C1433.47 396.665 1325.13 391.117 1309.53 393.08C1306.18 393.502 1295.47 393.447 1292.48 392.154C1291.06 388.247 1291.17 388.531 1292.08 384.444C1296.38 382.781 1311 382.999 1316.52 382.871C1310.15 367.927 1297.79 349.186 1289.05 334.752C1269.33 302.154 1248.05 270.089 1229.15 236.982C1228.7 284.096 1227.63 335.558 1229.11 382.416C1239.34 383.976 1252.61 381.575 1261.07 388.819C1249.77 397.463 1167 391.035 1148.36 393.058C1143.6 393.575 1123.72 392.895 1118.56 392.307L1116.27 388.836C1120.15 378.605 1139.67 388.55 1147.73 378.635C1149.31 376.884 1150.92 372.229 1150.71 369.86C1148.74 347.349 1149.32 325.27 1149.42 302.682C1150.04 237.123 1149.83 171.559 1148.8 106.003C1139.62 105.524 1124.38 105.614 1116.79 100.635L1117.66 99.2462C1128.82 94.7079 1149.91 95.6199 1162.57 95.5383Z" fill="#EE322F"/>
<path d="M243.495 587.991C261.591 572.737 280.492 556.811 297.167 539.728C307.804 528.833 335.537 505.347 334.609 489.107C333.893 476.59 311.305 481.675 302.669 475.612L302.236 472.62C318.353 466.985 367.447 473.296 387.377 470.266C392.885 469.427 405.049 470.451 409.298 474.27L408.865 476.699C390.187 480.121 369.102 482.296 355.076 495.848C339.359 511.034 310.202 535.56 300.233 554.503C308.939 572.185 333 607.506 344.238 625.152C365.26 658.173 386.011 691.435 406.941 724.507C409.745 728.955 414.117 735.32 416.613 739.674C422.878 750.599 425.333 745.29 433.337 749.67L433.863 752.063L432.235 754.255C430.313 754.533 426.967 755.047 424.345 755.039C384.228 754.895 343.391 755.532 303.358 753.678C302.62 753.002 301.883 752.327 301.145 751.649L302.138 753.239L301.752 750C305.724 745.54 318.244 746.03 325.083 745.513C316.423 727.657 305.095 709.7 294.897 692.519C277.89 663.83 260.739 635.228 243.44 606.716C243.201 651.508 242.183 701.56 243.62 745.984C253.685 747.193 264.019 745.132 271.857 749.169L272.48 753.166L273.232 750.748L271.852 753.422C264.079 755.507 144.236 755.619 136.31 753.876L135.089 750.795L136.202 748.59C145.8 747.882 153.832 747.111 163.36 745.821C165.22 717.475 164.022 673.658 164.055 644.171C164.114 590.052 164.765 533.782 163.54 479.802C155.533 478.694 138.996 481.15 134.812 475.465L135.652 471.276C153.707 471.921 264.98 467.257 271.402 474.096L270.509 476.628C266.042 479.454 250.197 479.663 243.419 480.314L243.495 587.991Z" fill="#EE322F"/>
<path d="M1673.95 570.695C1711.41 569.145 1840.08 557.227 1849.47 606.837C1857.02 646.77 1815.68 654.137 1785.98 658.378C1793.5 659.307 1802.83 660.831 1808.76 661.95C1863.46 672.29 1837.75 707.785 1851.92 743.952C1853.53 748.052 1866.25 747.369 1870.85 750.127L1868.68 753.056C1849.23 763.54 1804.54 759.015 1787.47 743.538C1772.12 714.945 1790.42 687.1 1773.93 666.521C1767.91 659.007 1752.91 659.895 1743.67 659.848C1743.47 688.224 1742.54 720.368 1743.85 748.441C1753.16 749.342 1757.51 748.714 1766.05 752.329L1764.78 753.5C1744.79 755.06 1677.31 756.369 1658.39 753.611L1658.65 752.236C1666.17 748.662 1671.62 748.97 1679.92 748.471C1680.5 691.987 1680.01 633.547 1679.53 577.024C1674.19 576.747 1662.48 577 1659.32 572.755C1663.54 570.183 1668.82 570.754 1673.95 570.695Z" fill="#EE322F"/>
<path d="M1747.1 575.848C1754.74 575.649 1768.12 574.535 1773.8 579.776C1788.54 593.364 1786.03 636.179 1774.32 650.249C1762.95 655.152 1755.96 654.305 1743.65 654.18C1743.46 630.636 1742.91 604.877 1743.81 581.282C1743.96 577.34 1744.68 577.604 1747.1 575.848Z" fill="#FEFEFE"/>
<path d="M2035.05 573.967C2047.02 572.282 2126.48 571.484 2135.52 574.038C2134.17 576.6 2135.04 575.887 2133.58 576.799C2128.73 577.678 2122.55 578.043 2117.54 578.503C2116.56 602.068 2116.61 633.371 2117.43 656.723C2133.12 656.876 2148.8 656.789 2164.48 656.468C2164.51 630.43 2164.4 604.39 2164.15 578.353C2155.35 578.174 2152.13 579.034 2143.85 575.745L2144.86 573.975C2158.68 571.721 2228.43 572.056 2243.64 573.823L2245.65 575.399L2243.55 576.946C2238.07 577.46 2232.58 577.893 2227.09 578.244C2226.64 632.268 2225.33 696.022 2227.1 749.928C2233.27 750.266 2239.12 749.825 2244.21 752.885L2243.53 754.401C2230.56 757.698 2161.94 756.304 2145.78 754.957L2145.34 753.944C2149.98 752.114 2161.58 748.799 2164.49 746.384C2164.69 718.542 2164.65 690.697 2164.37 662.854L2117.16 662.707C2117.04 686.578 2115.7 727.035 2117.54 749.757C2125 750.356 2130.99 749.593 2136.49 753.549L2135.98 755.027C2123.46 756.772 2048.32 757.306 2036.43 754.657L2035 753.206C2039.07 749.898 2049.01 749.999 2055.34 749.297C2055.43 730.163 2057.07 585.282 2054.26 578.489C2048.28 578.506 2042.04 579.028 2036.45 577.24L2035.05 573.967Z" fill="#EE322F"/>
<path d="M2035.05 573.968C2039.6 574.221 2058.27 574.245 2060.69 575.13C2057.89 576.818 2057.25 577.477 2054.26 578.49C2048.28 578.506 2042.04 579.029 2036.45 577.24L2035.05 573.968Z" fill="#FE2C1E"/>
<path d="M2243.64 573.824L2245.65 575.4L2243.54 576.947C2235.98 576.715 2230.41 576.163 2222.98 575.311C2229.31 574.094 2237.09 574.083 2243.64 573.824Z" fill="#FE2C1E"/>
<path d="M2135.52 574.04C2134.17 576.602 2135.04 575.889 2133.58 576.801C2126.47 576.803 2123.86 576.836 2116.95 575.486C2120.99 573.961 2130.74 574.165 2135.52 574.04Z" fill="#FE2C1E"/>
<path d="M807.049 556.722L854.776 556.607L859.75 568.926C881.246 568.916 1042.43 566.945 1051.52 571.633C1051.7 577.401 1015.04 680.78 1009.74 687.27C1004.29 688.528 1003.49 688.381 997.798 688.147L996.325 686.268C997.599 682.96 998.114 682.114 998.56 678.643C994.537 677.102 906.532 678.155 896.08 678.21C894.455 678.346 893.856 678.741 892.272 679.315C891.218 684.349 893.587 689.851 895.13 694.961C923.958 694.642 952.786 694.574 981.613 694.759C993.214 694.757 1015.91 690.757 1023 699.298C1023.73 705.453 1024.17 702.546 1021.38 708.301C1015.65 712.197 898.631 710.272 883.467 710.239C872.477 666.354 857.035 614.364 842.857 571.322C832.253 571.434 807.357 574.761 802.383 564.81C803.398 559.945 803.662 560.122 807.049 556.722ZM935.477 662.727C940.034 662.687 954.152 662.817 957.86 662.123L960.128 647.226C951.841 647.275 943.156 647.188 934.913 647.425L935.477 662.727Z" fill="#2F2E2F"/>
<path d="M864.148 585.003C880.475 584.603 896.807 584.396 913.138 584.38C913.699 590.108 914.527 596.146 915.21 601.893C899.902 601.926 884.594 601.744 869.288 601.346C867.99 596.092 865.864 590.214 864.148 585.003Z" fill="#FEFEFE"/>
<path d="M993.213 584.25C1005.79 584.03 1019.39 584.528 1032.04 584.754C1030.3 590.498 1028.9 596.58 1025.75 601.587L1022.68 602.161C1009.14 602.183 995.603 602.001 982.07 601.611C982.99 596.327 983.611 592.712 985.065 587.577C988.64 583.834 986.984 584.953 993.213 584.25Z" fill="#FEFEFE"/>
<path d="M948.361 584.184C955.107 584.026 963.144 584.309 969.994 584.385C969.468 589.844 969.523 595.049 966.879 599.772C963.032 602.691 959.482 601.874 954.449 601.754L929.685 601.507C929.5 596.505 928.553 590.587 930.97 586.501C935.364 583.479 942.671 584.241 948.361 584.184Z" fill="#FEFEFE"/>
<path d="M873.547 616.007C884.739 616.015 910.722 611.509 916.801 620.681C916.994 625.603 916.305 626.665 914.634 631.19C907.817 632.736 886.683 632.317 878.698 632.306L873.547 616.007Z" fill="#FEFEFE"/>
<path d="M979.735 616.055L1020.66 616.204C1018.85 621.135 1017.32 626.669 1015.8 631.733C1004.85 632.713 989.092 632.144 977.777 632.06L979.735 616.055Z" fill="#FEFEFE"/>
<path d="M975.294 646.692L1010.1 646.594C1007.9 651.843 1005.76 657.867 1003.7 663.241C993.527 663.74 982.599 663.394 972.352 663.258L975.294 646.692Z" fill="#FEFEFE"/>
<path d="M963.473 615.564C965.891 619.011 963.898 627.091 963.348 632.46L933.078 632.277C931.997 628.047 931.474 620.484 930.992 615.872C941.822 615.978 952.652 615.875 963.473 615.564Z" fill="#FEFEFE"/>
<path d="M882.137 647.493C891.27 646.706 901.082 651.155 901.112 661.154L904.216 662.962C901.044 663.634 890.96 663.032 887.151 662.918L882.137 647.493Z" fill="#FEFEFE"/>
<path d="M592.789 561.147L658.146 560.897C688.939 602.512 720.119 643.841 751.686 684.879C750.461 654.556 754.95 605.95 747.469 577.153C744.357 565.177 729.86 568.64 719.755 564.646L719.7 562.795C726.471 560.099 775.526 560.448 784.099 562.019L785.104 564.022C780.72 568.275 771.293 567.722 766.126 570.619C763.39 572.87 761.214 579.279 761.146 582.507C759.921 639.981 761.44 697.538 760.4 755.014L724.097 754.924C721.023 751.393 717.876 747.268 714.933 743.58C697.453 718.683 677.731 694.914 659.965 670.24C641.872 645.11 620.789 621.071 603.319 595.728C604.269 622.252 599.952 728.533 607.83 742.994C617.716 750.897 626.993 748.333 640.105 752.18L641.654 752.651C632.482 754.584 575.553 756.772 570.95 752.237C573.574 748.902 583.059 747.061 588.147 745.491C593.377 740.321 595.277 731.911 594.52 725.026C591.564 698.224 600.036 588.775 591.711 570.374C588.104 566.927 576.934 566.486 569.828 564.714L570.089 563.372C577.835 560.821 584.695 561.215 592.789 561.147Z" fill="#EE322F"/>
<path d="M2255.89 573.989C2266 571.106 2358.6 572.736 2375.85 572.878C2395.02 572.535 2414.2 572.524 2433.37 572.84C2433.56 584.639 2435.28 619.159 2431.53 628.715L2430 629.36C2410.5 611.607 2425.86 589.212 2374.09 578.671C2365.6 577.765 2353.25 577.884 2344.64 577.827C2334.83 587.688 2342.95 642.232 2339.62 658.482C2353.97 658.231 2373.41 659.307 2383.5 647.415C2387.47 642.727 2390.5 629.659 2395.85 625.118L2398.01 626.063C2399.24 634.32 2399.5 691.186 2397.51 697.08C2390.24 696.149 2387.78 679.733 2382.31 674.59C2371.27 664.204 2355.43 664.177 2341.15 663.632C2338.63 670.605 2340.06 737.734 2341 748.583C2429.38 758.958 2422.2 697.083 2434.01 694.085C2437.12 698.21 2435.53 747.276 2435.44 756.268L2316.78 756.377C2303.8 756.355 2266.53 757.052 2256.2 754.651L2256.88 752.993C2263.69 749.541 2269.85 749.495 2277.39 748.768C2277.83 730.506 2279.19 586.196 2276.1 577.759C2270.28 578.099 2262.11 578.941 2256.94 576.706L2255.89 573.989Z" fill="#EE322F"/>
<path d="M2344.64 577.827C2340.68 575.873 2340.23 576.984 2335.91 575.037L2336.67 574.008C2349.63 574.03 2362.58 574.122 2375.54 574.286L2385.7 574.397L2386.15 575.198L2374.09 578.671C2365.59 577.765 2353.25 577.885 2344.64 577.827Z" fill="#FE2C1E"/>
<path d="M2255.89 573.989C2261 573.883 2277.1 572.661 2280.1 575.459L2276.1 577.76C2270.28 578.1 2262.11 578.941 2256.94 576.706L2255.89 573.989Z" fill="#FE2C1E"/>
<path d="M1533.65 569.679C1545.77 569.113 1559.83 569.532 1572.11 569.609C1595.33 626.965 1614.98 686.956 1637.77 744.551C1640.32 751.001 1647.96 746.944 1652.27 752.18L1650.77 754.398C1641.06 755.365 1552.52 756.326 1547.18 752.67C1551.18 748.918 1564.36 747.875 1570.35 747.037C1567.74 736.506 1558.49 712.086 1554.64 700.407C1534.47 699.939 1513.02 699.212 1492.97 700.582C1489.13 710.35 1478.6 732.27 1482.91 741.238C1487.88 751.572 1502.92 748.706 1509.48 751.589C1497.08 756.704 1448.16 755.324 1435.21 753.222C1447.97 748.414 1462.07 750.26 1469.11 735.829C1478.97 715.658 1486.14 693.879 1494.09 672.84L1533.65 569.679Z" fill="#EE322F"/>
<path d="M1524.11 618.568C1529.09 624.326 1548.71 683.258 1551.9 693.805L1524.08 694.031L1495.29 694.034C1505.33 670.027 1514.95 643.106 1524.11 618.568Z" fill="#FEFEFE"/>
<path d="M1954.87 566.431C1975.47 565.097 1988.59 570.294 2007.68 576.725C2012.56 573.967 2016.01 571.288 2021.28 572.047C2023.56 580.988 2024.74 620.316 2020.09 627.503L2017.65 627.628C2009.56 617.994 2010.15 594.192 1994.71 581.968C1985.39 570.964 1956.71 571.628 1948.57 585.3C1931.4 614.15 1939.03 674.941 1938.71 707.417C1938.3 749.892 1981.8 767.588 2007.8 727.988C2011.05 721.113 2016.72 697.728 2022.89 696.813C2023.32 697.85 2023.82 698.841 2023.81 700.037C2023.55 728.883 2004.68 755.615 1974.52 758.705C1949.22 761.326 1917.77 756.309 1897.8 739.748C1850.95 700.919 1855.36 601.109 1914.74 575.429C1929.38 569.096 1939.24 567.621 1954.87 566.431Z" fill="#EE322F"/>
<path d="M467.835 561.136C487.24 560.752 546.752 560.15 562.932 563.523C552.559 566.227 540.496 566.945 529.702 567.936C528.085 623.604 528.762 691.994 529.688 747.943C536.652 748.454 545.062 748.316 551.002 751.373L550.131 753.129C542.535 755.451 535.217 754.828 527.194 754.798C515.869 755.045 446.276 756.529 441.395 752.007C447.504 748.702 457.228 748.577 464.448 747.921C466.544 693.641 464.56 623.427 464.219 568.342C456.469 567.321 449.581 568.189 442.663 564.762L443.082 563.126C451.291 560.591 459.167 561.179 467.835 561.136Z" fill="#EE322F"/>
<path d="M892.061 718.816C898.589 716.45 905.883 717.784 911.148 722.309C916.413 726.831 918.833 733.838 917.48 740.647C916.127 747.456 911.213 753.007 904.617 755.174C894.634 758.454 883.864 753.113 880.433 743.179C877.003 733.245 882.181 722.396 892.061 718.816Z" fill="#2F2E2F"/>
<path d="M990.452 719.047C997.089 716.787 1004.43 718.347 1009.58 723.108C1014.73 727.87 1016.85 735.068 1015.12 741.863C1013.38 748.656 1008.06 753.953 1001.26 755.66C991.323 758.157 981.188 752.366 978.285 742.541C975.386 732.713 980.752 722.349 990.452 719.047Z" fill="#2F2E2F"/>
<path d="M1637.22 904.946L1670.78 904.867C1673.54 918.722 1682.48 944.653 1686.98 958.453C1691.16 940.466 1696.04 922.65 1701.61 905.047C1712.67 904.924 1724.04 905.142 1735.13 905.218C1734.8 920.104 1733.76 966.897 1735.61 980.205L1712.59 979.908L1712.47 952.115C1712.37 943.83 1712.34 935.546 1712.4 927.265C1707.05 941.99 1701.33 965.114 1697.17 980.548C1689.92 980.158 1682.26 980.017 1674.96 979.772C1670.17 961.973 1664.16 942.831 1658.79 925.1C1659.46 942.878 1659.13 962.531 1659.16 980.458L1637.3 980.531C1637.54 955.335 1637.51 930.139 1637.22 904.946Z" fill="#2F2E2F"/>
<path d="M1519.36 904.973C1554.43 904.894 1598.33 894.44 1593.47 943.702C1592.2 956.541 1595.56 962.667 1586.86 974.468C1571.59 982.38 1539.03 979.851 1520.22 979.894C1518.78 957.203 1519.45 928.135 1519.36 904.973ZM1542.8 962.479C1550.78 962.408 1560.28 962.675 1568.04 961.477C1568.79 948.916 1569.62 936.569 1567.96 924.035C1559.44 923.72 1550.92 923.254 1542.42 922.639L1542.8 962.479Z" fill="#2F2E2F"/>
<path d="M979.723 905.084C996.915 904.899 1025.48 902.209 1040.31 908.879C1058.32 916.984 1055.33 960.104 1046.17 974.076C1029.76 983.582 1002.01 979.183 981.721 980.781L979.867 980.934C980.057 955.651 980.009 930.367 979.723 905.084ZM1002.48 962.236C1010.88 962.375 1018.97 962.802 1027.29 961.757C1032.38 932.943 1035.5 922.01 1002.62 922.562L1002.48 962.236Z" fill="#2F2E2F"/>
<path d="M1425.56 904.792C1437.63 904.849 1449.7 905.034 1461.77 905.347C1469.91 923.767 1477.74 942.321 1485.26 960.999C1483.28 945.119 1484.15 922.071 1484.22 905.225L1506.92 905.178C1507.58 930.048 1507.63 954.928 1507.08 979.8C1494.25 980.391 1484.17 980.375 1471.32 979.996C1464.01 960.969 1455.62 942.44 1447.96 923.517L1448.38 980.149C1441.5 979.795 1433.49 979.811 1426.54 979.678C1426.67 959.788 1427.65 923.944 1425.56 904.792Z" fill="#2F2E2F"/>
<path d="M744.656 904.878C762.54 904.862 800.218 900.103 810.953 916.122C815.431 922.803 814.437 935.037 812.504 942.333C811.399 946.499 807.253 948.277 803.755 950.324L812.439 956.444C813.49 964.214 816.4 973.312 811.307 979.525L804.876 980.058C799.807 980.211 795.9 980.902 791.414 978.754C788.553 974.757 789.388 967.69 789.383 962.406L769.033 960.868L768.804 980.004C760.817 980.51 752.791 980.663 744.79 980.891C744.912 955.899 745.419 929.77 744.656 904.878ZM768.698 944.008C774.173 943.659 783.677 943.365 788.792 942.641C789.729 937.101 790.997 933.115 789.402 927.818C783.856 921.937 777.551 923.111 768.908 922.719L768.698 944.008Z" fill="#2F2E2F"/>
<path d="M1263.52 905.151C1280.44 904.876 1312.2 901.786 1326.79 911.094C1333.6 915.436 1334.87 938.495 1329.58 945.304C1325.78 946.738 1324.19 947.041 1321.15 949.826L1321.38 951.388C1332.22 954.985 1336.41 972.618 1329.97 979.478L1324.86 979.625C1319.85 979.824 1314.43 980.641 1310.13 978.466C1307.15 974.774 1307.48 966.852 1307.16 961.671C1300.92 961.048 1293.87 961.012 1287.54 960.83C1287.35 967.388 1287.22 973.946 1287.15 980.507L1263.46 979.974C1264.64 957.612 1263.68 928 1263.52 905.151ZM1287.12 943.872C1294.06 943.556 1301.06 943.186 1308 942.954C1308.36 937.414 1309.55 930.902 1307.18 926.16C1302.34 922.177 1294.38 923.102 1287.63 922.879L1287.12 943.872Z" fill="#2F2E2F"/>
<path d="M1827.96 905.236C1859.83 904.735 1922.44 897.453 1888.22 950.322C1893.36 957.885 1900.56 967.514 1896.96 977.149C1893.01 980.527 1894.74 979.561 1888.4 979.651C1883.35 979.917 1879.47 980.685 1874.93 978.676C1871.48 974.818 1871.82 966.904 1871.41 961.291C1865.03 960.994 1858.12 961.029 1851.7 960.931L1851.47 980.288C1843.44 980.201 1835.41 980.154 1827.38 980.154L1827.96 905.236ZM1851.47 943.81C1858.4 943.744 1865.61 943.919 1872.44 942.974C1873.05 937.358 1874.36 931.706 1872.24 926.642C1868.86 923.168 1867.26 922.785 1862.42 922.714C1858.92 922.689 1855.41 922.736 1851.91 922.85L1851.47 943.81Z" fill="#2F2E2F"/>
<path d="M1248.14 973.282C1233.83 982.941 1209.84 983.668 1193.7 978.424C1175.53 972.032 1179.19 954.01 1178.54 939.812C1177.03 906.414 1193.31 902.651 1222.36 904.465C1244.66 905.856 1249.29 907.614 1252.9 930.126C1243.76 930.129 1240.3 930.616 1231.6 927.346C1223.72 924.384 1216.1 920.502 1208.13 923.783C1192.68 937.403 1204.21 978.237 1228.2 960.696C1230.27 956.171 1230.09 958.374 1229.45 953.964C1224.94 954.086 1224.37 954.522 1220.49 952.183C1217.09 948.317 1217.66 943.199 1217.42 937.836C1226.32 938.383 1238.62 937.735 1247.81 937.501L1251.27 938.5C1254.12 946.534 1253.39 966.081 1248.14 973.282Z" fill="#2F2E2F"/>
<path d="M1247.81 937.501L1251.27 938.5C1254.12 946.534 1253.39 966.081 1248.13 973.282C1245.74 965.008 1246.85 946.392 1247.81 937.501Z" fill="#232325"/>
<path d="M667.109 905.039C680.632 904.862 716.603 902.793 725.829 909.25C742.926 921.221 743.571 955.355 717.172 960.936L690.457 960.794C690.59 966.947 690.419 973.481 690.367 979.666C682.616 979.625 674.917 980.202 667.18 980.681L667.109 905.039ZM690.185 944.361C696.721 944.419 705.196 944.881 711.428 943.645C712.538 937.738 713.859 933.831 712.353 928.046C705.98 921.518 699.659 924.335 690.25 922.811L690.185 944.361Z" fill="#2F2E2F"/>
<path d="M1984.73 905.159L2008.43 905.088L2007.95 933.175L2032.12 933.159L2031.58 905.169L2055.2 905.205L2055.1 980.763L2031.74 980.948C2031.68 971.096 2031.89 960.971 2031.97 951.091L2007.84 951.097C2007.63 960.691 2007.55 970.287 2007.6 979.881L1984.51 979.865L1984.73 905.159Z" fill="#2F2E2F"/>
<path d="M1362.88 905.124C1373.06 904.697 1385.71 905.094 1396.07 905.135C1398.62 917.056 1417.11 970.691 1421.9 980.233C1414.84 980.543 1400.78 982.272 1395.48 978.186C1393.49 976.65 1393.53 972.779 1392.97 969.651C1388.44 966.338 1373.81 967.282 1368 967.811C1364.23 970.405 1363.93 974.619 1362.21 979.838L1338.14 979.454C1348.42 954 1353.71 929.313 1362.88 905.124ZM1382.04 951.438L1385.9 950.782C1386.93 945.778 1381.84 926.852 1378.3 923.402C1376.24 931.548 1371.77 942.988 1372.39 949.824L1374.43 951.86L1382.04 951.438Z" fill="#2F2E2F"/>
<path d="M488.159 905.039C498.297 904.876 508.953 905.088 519.138 905.129C528.252 929.99 535.54 955.548 544.696 980.154C536.673 980.287 526.681 981.714 520.112 978.776C516.323 974.189 517.48 974.867 516.396 968.012C509.231 967.255 497.783 967.783 490.185 967.925C489.234 972.517 489.24 974.867 486.047 978.275C479.456 981.281 470.101 979.805 461.953 979.702C471.697 956.166 479.363 929.487 488.159 905.039ZM507.908 952.165L510.772 951.201C511.569 946.113 506.541 927.031 503.233 923.568C501.54 931.373 496.384 944.4 496.969 949.529L498.646 951.952C502.525 952.336 503.993 952.312 507.908 952.165Z" fill="#2F2E2F"/>
<path d="M1765.47 905.032C1776.11 904.855 1787.24 905.078 1797.92 905.13C1801.22 918.982 1816.96 967.727 1822.91 980.516C1814.15 980.116 1806.6 982.03 1798.88 978.913C1794.86 974.582 1796.02 974.862 1794.61 968.04C1790.44 967.087 1773.66 967.547 1768.38 967.59C1767.32 972.355 1767.27 974.805 1763.98 978.396C1757.34 981.622 1748.38 980.075 1740.35 979.771C1748.19 958.805 1757.6 922.616 1765.47 905.032ZM1781.73 951.868L1787.81 951.103C1791.08 945.487 1784.69 927.304 1780.99 923.454C1777.99 932.278 1773.72 941.194 1773.99 949.995C1776.79 952.791 1776.34 951.836 1781.73 951.868Z" fill="#2F2E2F"/>
<path d="M859.172 905.141C868.428 904.891 877.461 905.277 886.709 905.582C890.915 916.33 893.553 921.963 898.998 932.153C903.307 923.555 907.508 914.631 911.717 905.958C921.744 905.005 931.542 905.179 941.609 905.171C936.687 914.152 923.932 932.03 917.508 941.771C924.793 954.738 933.739 967.071 941.675 979.741C931.732 980.955 923.483 980.514 913.495 980.264L897.536 952.664C892.557 962.87 888.737 970.147 882.914 979.863L856.512 979.79C864.254 966.632 871.382 954.656 879.813 941.88C873.282 930.958 863.184 916.771 859.172 905.141Z" fill="#2F2E2F"/>
<path d="M1063.04 905.051L1086.39 904.801C1086.53 916.21 1083.81 953.328 1088.73 958.005C1119.25 986.985 1111.08 912.089 1110.97 905.179L1134.94 904.926L1134.82 920.809C1134.63 935.948 1138.42 964.114 1126.54 974.631C1117.5 982.635 1100.18 981.712 1088.73 981.146C1077.19 980.577 1072.47 976.945 1065.15 968.573C1062.14 953.26 1063.42 922.358 1063.04 905.051Z" fill="#2F2E2F"/>
<path d="M596.35 904.844L620.52 904.898L620.591 922.169C620.566 954.667 629.605 981.001 586.452 981.232C549.386 981.434 548.319 970.326 548.948 936.266C549.138 926.109 549.337 915.249 549.402 905.184L571.419 904.993C571.383 916.915 568.911 954.343 574.144 959.099C604.983 987.132 596.435 911.59 596.35 904.844Z" fill="#2F2E2F"/>
<path d="M2067.38 905.027C2087.72 905.008 2108.92 904.667 2129.15 905.808L2129.1 922.371C2117.89 924.048 2098.61 922.45 2091.62 924.658C2090.64 928.2 2090.86 928.059 2091.7 931.709C2097.98 937.173 2117.42 934.726 2127.6 934.715L2127.93 950.001L2091.18 949.778C2090.74 953.837 2090.01 956.374 2091.68 960.055C2100.48 965.342 2120.14 962.628 2131.11 962.162C2130.72 967.931 2130.67 974.114 2130.51 979.929L2067.43 979.752C2067.63 954.844 2067.61 929.934 2067.38 905.027Z" fill="#2F2E2F"/>
<path d="M1924.94 905.056C1954.57 904.032 1970.5 899.818 1975.39 933.524C1968.94 934.014 1961.6 934.888 1955.26 934.273C1930.55 898.364 1917.93 953.131 1936.33 963.378C1941.9 964.078 1941.6 964.07 1946.94 962.265C1950.29 959.395 1950.36 957.128 1951.53 952.78L1951.98 951.07C1958.06 950.991 1963.37 950.825 1969.46 951.348C1980.8 959.14 1969.56 975.91 1958.64 979.217C1941.24 984.493 1912.05 983.941 1905.8 962.534C1901.79 948.794 1904.19 927.524 1909.7 914.282C1911.99 909.042 1919.95 906.567 1924.94 905.056Z" fill="#2F2E2F"/>
<path d="M827.54 905.494L849.388 904.83C849.058 916.585 850.695 972.763 847.836 980.037C840.899 979.661 833.459 979.68 826.476 979.569C826.462 969.564 825.439 912.132 827.54 905.494Z" fill="#2F2E2F"/>
</svg>
