<svg width="2524" height="1691" viewBox="0 0 2524 1691" fill="none" xmlns="http://www.w3.org/2000/svg">
<path d="M1031.53 395.45C1095.33 397.602 1173.58 396.675 1237.77 395.64C1240.35 410.387 1239.58 435.511 1239.58 451.099L1239.5 541.618L1239.47 859.563C1254.39 844.277 1274.22 820.58 1289.11 804.14L1382.23 702.913C1395.88 688.061 1423.07 656.433 1437.11 644.608C1518.35 644.464 1610.78 646.632 1691.01 643.766C1680.62 658.248 1663.11 674.14 1650.17 686.925C1633.74 703.427 1617.2 719.811 1600.54 736.077C1557.04 778.446 1513.14 823.184 1469.06 864.567C1490.15 892.829 1510.67 923.088 1531.26 951.763C1587.08 1028.53 1642.34 1105.69 1697.04 1183.25C1685.85 1183.6 1674.19 1183.52 1662.96 1183.39C1593.31 1182.54 1523.29 1184.27 1453.69 1182.96C1442.31 1172.08 1419.85 1135.05 1410.14 1120.12C1383.12 1078.96 1356.59 1037.48 1330.55 995.694C1310.6 1012.24 1255.71 1061.85 1239.95 1079.85C1238.78 1111.39 1239.61 1151.94 1240.98 1183.09C1180.11 1181.73 1116.18 1184.45 1055.82 1181.94C1097.98 1231.58 1147.8 1280.79 1190.4 1330.77C1205.31 1348.25 1224.26 1367.67 1237.76 1385.75C1232.21 1387.82 1225.75 1387.05 1219.47 1387.02C1182.85 1386.98 1145.18 1387.38 1108.64 1386.44C1102.53 1381.25 1088.99 1365.44 1082.93 1358.67L1033.13 1303.1L979.873 1244.28C965.572 1228.79 950.629 1213.97 937.841 1197.24C911.246 1222.72 880.525 1243.5 846.981 1258.71C781.845 1289.01 703.822 1290.63 638.018 1267.38C497.434 1217.69 456.666 1053.29 574.536 954.769C607.72 927.034 630.352 913.873 669.732 896.422C648.36 870.868 625.05 847.905 610.5 817.404C574.752 742.45 594.286 654.459 673.753 618.35C797.924 561.732 980.865 633.329 932.048 792.839C917.232 841.247 850.875 891.126 806.37 911.512C821.745 926.432 839.622 947.076 854.284 963.129L948.156 1066.92C976.994 1016.16 982.892 1002.99 997.373 946.041C1007.46 945.102 1020.6 945.252 1031.68 944.457L1031.53 395.45ZM780.646 1189.34C824.247 1178.16 849.191 1165.64 884.127 1136.82C829.025 1077.12 774.362 1013.37 719.083 954.687C680.725 977.447 628.544 1014.6 619.358 1060.86C598.711 1164.85 695.131 1205.89 780.646 1189.34ZM755.057 853.243L770.956 842.79C803.563 819.378 837.455 796.717 843.84 753.993C851.969 699.622 815.032 666.52 762.691 671.691C748.72 673.996 733.296 677.621 722.738 687.289C658.463 746.134 715.15 810.009 755.057 853.243ZM1033.07 1081.99C1021.99 1096.48 1015.65 1111.33 1004.02 1124.35C1015.81 1137.77 1027.84 1150.99 1040.09 1164L1038.85 1136.99C1038.21 1118.05 1038.82 1099.28 1039.72 1080.35C1071.45 1035.75 1082.58 999.863 1093.06 946.474C1078.37 946.267 1046.24 946.936 1034.06 944.247C1032.68 983.08 1037.53 1045.13 1033.07 1081.99Z" fill="#1F57A6"/>
<path d="M1737.82 404.989C1765.02 402.7 1840.22 400.905 1864.9 414.427C1882.21 423.904 1888.66 451.102 1894.48 469.401C1912.81 470.05 1931.25 470.04 1949.6 469.86C2074.31 468.632 2199.1 468.33 2323.8 467.816L2424.26 467.053C2442.15 466.929 2459.67 466.516 2477.55 467.498C2501.4 468.808 2521.22 485.611 2521.16 510.595C2521.07 552.251 2515.82 594.365 2513.08 635.975C2510.64 673.16 2509.04 710.683 2504.82 747.721C2502.79 767.891 2488.87 783.24 2468.67 786.479C2447.6 789.855 2425.59 791.266 2404.22 793.241L2284.24 804.166L2096.09 820.897C2049.88 825.413 2000.08 831.72 1954.4 835.447C1944.79 846.375 1918.69 878.923 1925.77 892.894C1934.69 894.249 1959.5 893.303 1969.78 893.192C1997.46 892.854 2025.14 892.687 2052.83 892.694C2164.83 893.025 2276.89 892.072 2388.89 892.412C2410.3 892.478 2451.17 886.681 2465.93 903.347C2486.39 926.434 2468.82 955.246 2438.36 955.439C2411.19 955.613 2383.38 954.562 2356.22 954.68L2131.66 954.935C2082.3 954.961 2031.82 958.053 1982.59 956.536C1945.58 955.4 1893.49 967.599 1867.64 936.216C1850.41 915.287 1842.35 877.463 1859.46 854.562C1878.47 829.126 1909.3 781.121 1933.19 762.107C1919.06 733.168 1902.06 687.18 1889.8 656.491L1816.92 474.061C1769.02 476.658 1696.35 499.958 1712.45 422.038C1722.04 411.673 1724.51 409.348 1737.82 404.989ZM2113.34 756.006C2110.49 749.905 2104.75 730.849 2102.36 723.668C2095.01 701.536 2086.75 678.852 2080.62 656.452C2045.53 656.436 2005.39 655.499 1970.72 656.963L2013.85 766.086C2047.32 762.088 2080.39 759.848 2113.34 756.006ZM2138.56 656.252C2149.13 687.15 2160.18 721.247 2172.1 751.422C2183.44 751.045 2193.13 749.614 2204.21 747.59C2197.74 734.556 2174.03 669.076 2171.62 656.445L2138.56 656.252ZM2153.86 608.839C2142.19 582.818 2133.62 558.61 2124.11 531.845L2092.04 531.901C2099.25 553.934 2110.92 587.268 2120.03 608.967C2133.51 610.595 2140.16 610.215 2153.86 608.839ZM2446.65 656.799C2426.84 655.984 2404.6 656.288 2384.61 656.157C2392.95 680.04 2400.05 698.831 2387.83 723.674C2387.29 724.768 2384.56 729.834 2384.23 730.774C2403.82 729.778 2423.36 727.823 2442.9 726.038C2444.79 703 2446.05 679.91 2446.65 656.799ZM1951.53 610.366C1977.08 610.575 2042.53 612.314 2064.13 609.73C2055.52 588.729 2045.58 554.913 2038.83 532.71C2011.18 530.666 1949.92 531.721 1922.31 533.712C1929.93 554.641 1945.87 591.378 1951.53 610.366ZM2452.64 610.647C2452.82 595.229 2460.27 547.925 2456.24 538.555C2441.57 528.957 2348.18 531.786 2324.91 531.711C2353.01 547.735 2358.71 578.721 2369.51 609.121C2382.21 611.715 2436.59 610.706 2452.64 610.647ZM2334.11 735.375C2323.98 709.383 2312.89 683.05 2304.13 656.652C2296.36 656.016 2282.26 656.351 2274.01 656.288C2283.85 683.407 2294.36 711.315 2303.57 738.588C2313.65 738.702 2324.09 736.816 2334.11 735.375ZM2256.84 608.97C2266.97 609.193 2276.12 609.419 2286.25 608.967C2276.17 583.034 2265.07 557.874 2255.11 531.773L2227.37 531.442C2237.49 557.169 2246.4 583.581 2256.84 608.97Z" fill="#52AD5C"/>
<path d="M2171.62 656.445C2205.49 655.901 2240.2 655.292 2274.02 656.288C2283.86 683.406 2294.37 711.314 2303.58 738.587C2271.9 742.838 2236.12 745.421 2204.22 747.589C2197.74 734.556 2174.04 669.076 2171.62 656.445Z" fill="#1F57A6"/>
<path d="M2124.11 531.842C2139.91 530.499 2213.28 528.911 2227.38 531.439C2237.5 557.166 2246.41 583.577 2256.85 608.967C2226.2 610.247 2184.64 609.406 2153.87 608.836C2142.2 582.814 2133.63 558.607 2124.11 531.842Z" fill="#1F57A6"/>
<path d="M2255.12 531.77C2269.11 530.906 2311.87 528.591 2324.91 531.708C2353.01 547.732 2358.72 578.718 2369.51 609.118L2286.26 608.964C2276.18 583.031 2265.07 557.871 2255.12 531.77Z" fill="#1F57A6"/>
<path d="M2080.63 656.45C2099.61 656.211 2119.69 655.609 2138.57 656.251C2149.14 687.148 2160.19 721.246 2172.11 751.42C2161.76 752.085 2120.09 756.483 2113.35 756.005C2110.5 749.904 2104.76 730.848 2102.37 723.666C2095.02 701.535 2086.76 678.85 2080.63 656.45Z" fill="#1F57A6"/>
<path d="M2304.12 656.651C2330.94 655.695 2357.78 655.531 2384.61 656.157C2392.95 680.04 2400.05 698.831 2387.83 723.674C2387.29 724.767 2384.56 729.834 2384.23 730.773C2367.52 732.214 2350.81 733.747 2334.11 735.375C2323.98 709.382 2312.89 683.05 2304.12 656.651Z" fill="#1F57A6"/>
<path d="M2038.84 532.709C2056.89 531.523 2073.98 531.792 2092.05 531.9C2099.26 553.933 2110.93 587.267 2120.04 608.966C2101.41 608.878 2082.77 609.133 2064.14 609.729C2055.53 588.728 2045.59 554.912 2038.84 532.709Z" fill="#1F57A6"/>
<path d="M246.489 632.528C254.368 630.999 280.282 630.924 289.942 630.976C375.156 631.447 439.69 646.063 518.112 678.968C501.872 718.266 484.191 757.924 467.503 797.176C455.111 793.325 436.752 784.385 422.651 779.413C370.899 761.16 318.427 755.432 264.022 761.887C249.538 764.14 224.901 768.905 216.767 782.374C196.184 816.452 243.774 831.738 267.035 838.488C356.794 864.536 488.458 881.332 517.421 987.06C473.345 1056.57 469.448 1079.21 484.411 1159.53C415.171 1217.68 333.73 1225.22 246.97 1224.61C172.393 1225.55 64.8839 1212.66 0 1173.49C9.59521 1134.05 28.5597 1078.35 40.9516 1037.74C107.149 1071.64 177.292 1093.52 252.753 1092.87C279.502 1092.96 332.774 1086.48 329.636 1049.13C326.836 1015.78 263.734 1005.87 239.53 999.923C143.519 976.217 22.7927 950.585 13.5053 830.979C2.00746 682.914 123.89 642.755 246.489 632.528Z" fill="#1F57A6"/>
<path d="M2085.4 140.983C2159.85 131.03 2228.26 183.31 2238.22 257.749C2248.17 332.192 2195.89 400.61 2121.45 410.562C2047.01 420.514 1978.59 368.235 1968.64 293.795C1958.68 219.352 2010.96 150.938 2085.4 140.983Z" fill="#1F57A6"/>
<path d="M1422.74 14.5101C1477.83 6.2936 1529.2 44.1865 1537.61 99.2558C1546.02 154.322 1508.31 205.822 1453.27 214.428C1397.96 223.073 1346.15 185.135 1337.69 129.79C1329.24 74.4458 1367.36 22.7692 1422.74 14.5101Z" fill="#52AD5C"/>
<path d="M1748.59 1.60704C1798.86 -7.86372 1847.2 25.5066 1856.17 75.8667C1865.13 126.23 1831.29 174.232 1780.84 182.701C1731.09 191.052 1683.9 157.78 1675.06 108.12C1666.22 58.4578 1699.02 10.9435 1748.59 1.60704Z" fill="#52AD5C"/>
<path d="M1174.87 178.633C1215.11 171.082 1253.8 197.752 1261.06 238.048C1268.32 278.345 1241.37 316.84 1201.02 323.809C1161.09 330.703 1123.07 304.085 1115.88 264.201C1108.7 224.317 1135.04 186.11 1174.87 178.633Z" fill="#52AD5C"/>
<path d="M2345.88 981.748C2385.32 978.097 2420.34 1006.92 2424.33 1046.33C2428.33 1085.73 2399.82 1121 2360.45 1125.34C2320.58 1129.74 2284.78 1100.79 2280.73 1060.89C2276.69 1020.99 2305.95 985.446 2345.88 981.748Z" fill="#52AD5C"/>
<path d="M1989.03 981.787C2028.26 978.43 2062.92 1007.18 2066.87 1046.36C2070.82 1085.53 2042.59 1120.63 2003.48 1125.17C1977.65 1128.16 1952.21 1117.01 1936.9 1095.99C1921.6 1074.96 1918.82 1047.33 1929.61 1023.67C1940.41 1000.01 1963.12 984.004 1989.03 981.787Z" fill="#52AD5C"/>
<path d="M1962.79 1300.58C1973.12 1300.46 1984.09 1300.53 1994.35 1300.16C1994.88 1341.96 1996.57 1389.79 1994.67 1431.11C1987 1431.34 1979.34 1431.47 1971.67 1431.5C1971.96 1393.97 1974.11 1360.9 1975.01 1324.38C1964.99 1359.35 1958 1395.98 1948.26 1430.79L1925.48 1431.13C1917.28 1406.02 1913.02 1380.1 1905.3 1355.33C1904.84 1348.31 1903.57 1341.09 1899.36 1335.43C1897.35 1339.55 1898.53 1341.16 1899.17 1346.65C1899.14 1374.66 1899.26 1402.68 1899.54 1430.69C1893.74 1430.98 1885.44 1432.1 1880.36 1430.04C1877.6 1402.11 1879.7 1331.41 1879.77 1300.39C1890.1 1300.59 1899.31 1300.68 1909.63 1300.32C1920.84 1334.97 1927.44 1370.77 1937.56 1401.94C1945.03 1369.59 1952.28 1331.57 1962.79 1300.58Z" fill="#1F57A6"/>
<path d="M75.3376 1531.49C90.1824 1530.62 105.161 1530.53 120.042 1530.3C126.435 1556.45 127.761 1582.33 134.618 1608.77C149.61 1584.23 164.973 1555.27 180.649 1531.84C194.367 1530.62 215.611 1530.92 229.899 1530.68L223.67 1534.23C221.964 1535.2 213.597 1539.84 213.191 1541.18C207.853 1558.79 179.261 1635.02 196.421 1645.09L196.48 1646.97C186.97 1649.76 156.786 1650.37 148.16 1647.12C166.027 1630.37 174.705 1581.77 181.599 1557.37L181.628 1554.66L180.089 1553.1C173.628 1558.88 168.978 1573.84 164.321 1580.46C156.651 1591.38 125.331 1645.68 115.572 1649.02C104.644 1637.69 107.483 1577.86 96.47 1555.66L94.9178 1555.64C92.072 1561.2 75.9959 1627.24 74.3028 1635.66C77.5056 1642.07 80.5217 1642.45 87.4512 1646.25L86.0987 1648.33C74.2569 1650.19 47.767 1648.63 34.707 1648.1C48.9426 1642.91 59.4089 1644.11 64.2262 1626.82C71.9515 1599.09 81.7072 1570.55 86.3083 1542.05C86.9665 1537.98 78.3439 1537.81 75.3376 1531.49Z" fill="#4AA952"/>
<path d="M1508.49 1531.57C1521.39 1530.24 1540.92 1530.65 1554.35 1530.54C1559.97 1554.2 1561.75 1582.54 1566.84 1607.88C1582.44 1589.28 1599.7 1553.69 1616.25 1531.26C1631.59 1530.64 1648.77 1530.88 1664.26 1530.76C1659.97 1532.7 1655.3 1534.6 1651.3 1537.09C1641.98 1542.88 1624.62 1623.54 1621.11 1639.24L1637.32 1648.01C1625.37 1649.31 1587.92 1652.91 1578.55 1647.64C1580.65 1641.72 1591.04 1644.18 1594.72 1634.28C1602.42 1613.53 1606.97 1591.2 1612.14 1569.7C1613.52 1564.11 1614.4 1561.8 1614.18 1555.95C1611.94 1556.61 1557.98 1642.77 1548.85 1653.89C1541.77 1632.1 1537.13 1579.97 1531.43 1552.86C1526.37 1566.07 1507.81 1624.89 1507.01 1636.74C1509.75 1641.85 1521.33 1645.65 1526.9 1647.97C1507.56 1648.58 1488.22 1649.34 1468.89 1650.23C1493.23 1635.66 1494.07 1643.32 1503.23 1610.28C1509.64 1587.16 1517.68 1563.88 1522.71 1540.24L1509.45 1534.72L1508.49 1531.57Z" fill="#4AA952"/>
<path d="M1719.34 1299.78C1755.49 1299.76 1801.14 1294.06 1794.7 1347.6C1793.27 1359.5 1784.92 1366.78 1775.72 1373.29C1784.31 1392.34 1794.24 1411.72 1803.18 1430.81C1793.19 1431.08 1779.44 1434.28 1773.48 1426.26C1768.26 1415.14 1758.63 1386.68 1750.45 1379.8L1748.06 1381.15C1744.1 1394 1745.39 1417.33 1745.62 1431.6C1737.48 1432.04 1728.12 1432.07 1719.87 1432.27C1718.6 1389.36 1719.37 1342.95 1719.34 1299.78ZM1765.73 1355.09C1775.42 1331.23 1771.4 1321.44 1745.56 1320.64C1745.26 1331.57 1743.52 1346.9 1747.31 1356.45C1753.77 1361.39 1758.77 1358.87 1765.73 1355.09Z" fill="#1F57A6"/>
<path d="M2138.39 1300.07C2169.36 1299.82 2220.86 1294.65 2214.87 1344.48C2213.26 1357.84 2205.5 1365.92 2194.71 1373.27C2203.42 1392.56 2213.23 1411.77 2222.15 1431.16C2213.07 1431.3 2198.34 1433.69 2192.5 1426.8C2186.56 1414.25 2179.64 1390.17 2169.58 1381.94L2166.56 1382.55C2160.92 1393.09 2164.11 1418.2 2164.92 1431.14L2138.45 1432.64L2138.39 1300.07ZM2184.9 1355.27C2194.24 1332.05 2190.42 1320.37 2164.05 1319.68C2163.59 1331.53 2160.86 1349.49 2167.74 1358.04C2173.85 1360.41 2179.26 1358.07 2184.9 1355.27Z" fill="#1F57A6"/>
<path d="M2052.09 1298.65C2062.85 1298.48 2071.32 1298.62 2082.07 1299.21C2093.46 1334.96 2107 1392.61 2116.95 1430.76C2107.98 1431.37 2099.25 1431.25 2090.27 1431.25C2088.1 1424.19 2087.12 1412.31 2085.17 1403.77L2081.35 1402.58C2070.57 1402.07 2058.71 1402.15 2047.83 1402.01C2045.76 1414.3 2044.89 1419.9 2040.77 1431.56L2016.68 1430.94C2025.16 1397.9 2035.08 1365.27 2042.69 1331.96C2044.99 1321.87 2047.52 1307.39 2052.09 1298.65ZM2052.82 1382.62L2073.37 1383.55L2079.54 1383.05C2080.06 1381.88 2069.36 1327 2065.06 1323.56C2061.38 1345.19 2058.24 1361.23 2052.82 1382.62Z" fill="#1F57A6"/>
<path d="M2339.58 1298.82L2362.68 1300.13C2363.14 1317.29 2362.78 1335.34 2362.7 1352.57L2394.17 1352.54L2394.05 1299.82C2402.46 1299.42 2411.43 1299.66 2419.88 1299.71C2420.08 1318.89 2422.68 1418.53 2419.15 1430.61L2413.95 1431C2405.63 1432.09 2402.69 1433.27 2396.4 1428.66C2390.9 1416.94 2394.12 1390.86 2394.17 1374.91C2383.98 1375.16 2373.15 1374.99 2362.89 1375.01L2362.91 1430.8C2354.88 1431.85 2346.11 1432.13 2337.98 1432.58C2338.02 1415.2 2336.04 1307.83 2339.58 1298.82Z" fill="#1F57A6"/>
<path d="M1528.07 1300.12C1547.44 1299.22 1572.12 1297.65 1588.37 1308.92C1597.36 1315.03 1603.32 1324.7 1604.74 1335.49C1606.06 1345.79 1602.8 1358.42 1596.06 1366.28C1583.01 1381.52 1570.45 1381.86 1552.47 1383.76C1552.22 1399.32 1552.55 1415.62 1552.61 1431.24C1544.74 1431.86 1535.75 1432.15 1527.77 1432.56C1527.31 1388.42 1527.4 1344.27 1528.07 1300.12ZM1573.4 1358.76C1582.49 1335.12 1580.75 1321.93 1553.49 1319.28C1553.58 1331.12 1550.73 1355.72 1556.91 1362.75C1563.44 1364.33 1567.53 1362.32 1573.4 1358.76Z" fill="#1F57A6"/>
<path d="M1417.54 1300.13L1440.3 1299.95C1441.66 1323.84 1435.68 1384.65 1444.08 1402.76C1446.08 1407.07 1449.4 1411.18 1454.23 1412.36C1458.56 1413.42 1462.34 1412.08 1465.74 1409.39C1476.01 1401.26 1470.95 1317.68 1472 1300.53C1478.98 1300.15 1487.92 1298.52 1493.63 1301.82C1497.35 1306.64 1496.45 1311.19 1496.47 1317.53C1496.22 1346.39 1503.78 1402.84 1484.33 1423.62C1470.61 1438.27 1432.22 1435.03 1423.74 1418.48C1413.16 1397.81 1414.35 1320.26 1417.54 1300.13Z" fill="#1F57A6"/>
<path d="M872.309 1575.11C882.284 1575.14 885.644 1576.77 894.928 1579.91C903.213 1577.96 910.519 1576.99 918.899 1575.75C911.819 1601.41 894.921 1649.65 890.412 1677.39C889.701 1681.76 894.594 1684.07 898.032 1686.29L896.827 1687.94C891.427 1689.24 865.595 1691.5 861.852 1688.1L863.745 1684.37C870.229 1666.77 875.744 1648.83 880.266 1630.62C822.964 1687.53 797.404 1603.24 872.309 1575.11ZM863.535 1637.14C874.961 1627.05 896.843 1600.74 888.299 1584.95C883.738 1582.64 883.61 1583.06 878.367 1583.04C862.527 1591.08 848.641 1613.87 852.021 1631.58C855.81 1636.63 856.622 1636.77 863.535 1637.14Z" fill="#52AD5C"/>
<path d="M2199.6 1691C2202.78 1679.63 2224.5 1600.45 2223.48 1594.15C2219.73 1591.24 2217 1591.16 2212.34 1590.25L2211.23 1588.51C2218.1 1581.87 2237.93 1571.87 2246.11 1579.19C2247.91 1585.76 2246.88 1589.87 2246.17 1596.82C2254.36 1588.59 2257.14 1585.73 2266.76 1579.04C2305.3 1572.28 2299.25 1614.95 2282.75 1634.62C2269.38 1650.55 2251.32 1654.15 2231.38 1650.97C2226.8 1669.06 2226.49 1668.15 2229.63 1686.61C2224.55 1690.25 2207.12 1690.45 2199.6 1691ZM2240.84 1616.17C2239.09 1623.86 2233.39 1640.91 2234.57 1647.05C2255.43 1654.42 2278.13 1610.62 2268.23 1589.82C2253.89 1595.7 2248.68 1602.78 2240.84 1616.17Z" fill="#52AD5C"/>
<path d="M2246.17 1596.82C2254.36 1588.59 2257.14 1585.73 2266.76 1579.03C2266.99 1582.16 2266.92 1587.41 2268.23 1589.82C2253.9 1595.7 2248.68 1602.77 2240.84 1616.17C2241.89 1608.63 2244.47 1604.6 2246.17 1596.82Z" fill="#4AA952"/>
<path d="M2453.85 1298.66C2471.33 1300.41 2493.77 1299.85 2511.68 1299.89C2512.21 1307.97 2513.5 1311.78 2509.37 1317.95C2501.45 1322.16 2487.7 1320.31 2477.6 1320.18L2477.13 1353.78L2508.43 1354.1L2508.63 1374.21C2498.46 1374.92 2487.65 1374.74 2477.41 1374.79C2477.26 1385.95 2477.39 1397.32 2477.4 1408.5C2487.35 1409.9 2502.85 1409.58 2513.36 1409.66L2513.34 1430.75C2501.1 1432.52 2467.24 1431.12 2452.27 1430.97C2452.13 1414.14 2450.09 1307 2453.85 1298.66Z" fill="#1F57A6"/>
<path d="M1630.76 1299.78C1647.9 1299.74 1667.53 1298.96 1684.39 1300.43C1689.36 1300.86 1688.41 1301.04 1690.92 1304.39C1691.4 1309.31 1691.99 1311.85 1690.8 1316.71C1684.12 1322.78 1665.36 1320.96 1655.43 1320.88L1655.42 1353.73C1666.78 1353.96 1687.71 1350.96 1689.58 1365.69C1679.66 1375.74 1667.19 1373.74 1654.16 1373.5C1654.06 1383.19 1654.46 1392.98 1654.74 1402.68L1655 1406.49C1661.99 1414.88 1679.48 1406.46 1688.94 1410.26C1697.04 1413.51 1694.78 1423.03 1690.88 1428.64C1684.09 1433.49 1641.48 1431.96 1630.69 1431.85C1629.86 1388.49 1630.56 1343.22 1630.76 1299.78Z" fill="#1F57A6"/>
<path d="M1357.5 1298.75C1364.4 1298.82 1372.35 1299.72 1378.98 1301.59C1387.99 1304.13 1389.02 1315.33 1383.5 1321.82C1373.83 1325.38 1358.87 1315.68 1351.48 1323.95C1348.61 1327.2 1347.21 1331.5 1347.62 1335.81C1349.07 1352.45 1393.11 1369.01 1391.58 1391.83C1389.61 1421.22 1374.4 1431.78 1347.18 1433.49C1334.51 1432.17 1333.04 1431.9 1321.18 1428.04L1321.3 1404.47C1367.25 1426.21 1382.42 1397.37 1338.3 1367.97C1309.99 1349.11 1311.19 1304.74 1357.5 1298.75Z" fill="#1F57A6"/>
<path d="M1097.13 1578.24C1104.59 1574.14 1111.24 1573.96 1119.74 1572.77C1117.26 1582.14 1101.55 1629.62 1102.36 1634.58C1108.2 1638.02 1114.75 1633.48 1120.62 1630.64C1114.38 1641.49 1101.58 1654.16 1087.95 1651.23C1076.84 1642.27 1084.7 1639.66 1079.58 1630.75C1066.9 1639.08 1061.64 1654.49 1042.89 1651.46C1020.3 1647.81 1028.17 1625.84 1034.26 1611.41C1040.9 1596.91 1049.44 1589.19 1062.96 1580.57C1073.33 1574.72 1086.07 1575.71 1097.13 1578.24ZM1090.97 1584.6C1087.57 1584.12 1082.49 1584.02 1078.92 1583.82C1066.46 1591.44 1048.97 1618.92 1055.1 1633.53C1060.18 1637.88 1057.39 1636.8 1063.49 1637.57C1078.62 1631.2 1091.24 1600.39 1090.97 1584.6Z" fill="#52AD5C"/>
<path d="M2281.87 1298.63C2292.85 1298.5 2311 1299.79 2313.2 1313.18C2305.4 1334.57 2284.35 1313.65 2273.56 1327.72C2264.2 1339.92 2264.8 1366.72 2266.45 1381.47C2270.08 1413.9 2280.57 1411.61 2307.07 1407.16C2310 1409.31 2309.89 1413.61 2310.94 1418.32C2310.68 1423.44 2310.26 1428.31 2304.51 1429.97C2251.54 1445.3 2236.41 1401.21 2239.18 1357.54C2241.03 1328.46 2250.34 1304.63 2281.87 1298.63Z" fill="#1F57A6"/>
<path d="M2049.59 1573.23L2072.84 1573.23C2070.1 1585.29 2056.67 1630.81 2059.21 1637.49C2068.08 1638.11 2072.13 1627.13 2075.6 1630.58C2072 1641.8 2056.58 1652.31 2044.48 1651.78C2034.63 1646.34 2036.36 1638.43 2035.82 1627.75L2034.25 1627.29L2030.38 1630.25C2027.3 1635.1 2023.43 1639.4 2018.92 1642.96C2012.13 1648.34 2002.68 1653.69 1993.76 1653.01C1976.75 1641.08 1998.14 1607.32 1994.21 1586.33C1992.19 1583.94 1991.7 1583.39 1989.94 1580.75C1995.59 1576.8 2013.62 1575.33 2020.94 1574.6C2020.29 1597.62 2009.57 1613.46 2011.32 1633.51C2011.49 1635.44 2013.4 1635.33 2015.67 1635.93C2021.36 1634.44 2023.28 1632.03 2027.67 1628.14C2041.9 1610.64 2044.53 1594.61 2049.59 1573.23Z" fill="#52AD5C"/>
<path d="M961.75 1573.37C964.799 1573.76 963.158 1573.27 966.479 1575.39C969.252 1592.19 950.724 1626.74 955.983 1634.99C988.689 1638.29 985.594 1580.48 1002.39 1573.53C1033.79 1560.56 1000.27 1623.39 1004.98 1636.97L1009.51 1637.18C1016.77 1631.67 1018.86 1630.38 1027.07 1626.42C1024.94 1629.04 1022.78 1631.64 1020.6 1634.22C1013.15 1642.96 1005.55 1650.64 993.561 1651.57C979.142 1646.24 982.096 1635.06 982.542 1621.87C972.278 1636.14 958.465 1656.72 938.014 1648.96C923.189 1634.89 944.842 1599.78 942.494 1587.39C939.295 1584.41 939.236 1585.07 937.412 1581.45C946.208 1578.13 952.531 1575.71 961.75 1573.37Z" fill="#52AD5C"/>
<path d="M1935.6 1576.98C1945.35 1573.46 1951.83 1573.7 1961.95 1573.42C1969.52 1577.04 1979.96 1586.28 1973.5 1595.28C1961.97 1610.65 1940.61 1613.91 1923.47 1619.58C1921.08 1620.37 1919.23 1636.56 1927.98 1639.33C1944.19 1644.47 1953.98 1631.86 1968.85 1626.66C1911.44 1696.23 1857.56 1610.21 1935.6 1576.98ZM1924.58 1613.02C1944.11 1604.16 1952.41 1600.5 1952.49 1578.23L1940.06 1581.88C1930.81 1593.17 1929.14 1599.48 1924.58 1613.02Z" fill="#52AD5C"/>
<path d="M1935.59 1576.98C1945.34 1573.46 1951.82 1573.7 1961.94 1573.42C1958.01 1575.06 1955.7 1575.58 1952.48 1578.23L1940.05 1581.88L1935.59 1576.98Z" fill="#4AA952"/>
<path d="M267.189 1573.13C276.277 1573.87 292.192 1575.5 287.624 1590.5C283.38 1604.45 270.998 1609.72 258.023 1613.76C251.018 1615.26 244.128 1616.57 237.284 1618.68C234.274 1627.33 234.828 1634.51 242.143 1640.22C253.753 1643.09 267.864 1634.8 279.522 1630.08L278.903 1632.36C239.416 1672.24 192.042 1647.98 221.905 1597.06C230.633 1582.18 250.684 1575.6 267.189 1573.13ZM256.955 1604.81C266.813 1596.39 270.32 1592.91 266.705 1579.75C247.753 1580.46 243.44 1596.82 238.594 1612.37L256.955 1604.81Z" fill="#4AA952"/>
<path d="M267.191 1573.13C276.278 1573.87 292.194 1575.5 287.626 1590.5C283.381 1604.45 270.999 1609.72 258.025 1613.76C251.02 1615.26 244.13 1616.57 237.285 1618.68L238.595 1612.37L256.957 1604.81C266.814 1596.39 270.321 1592.91 266.706 1579.75L267.191 1573.13Z" fill="#52AD5C"/>
<path d="M1353.57 1641.8C1315.8 1666.64 1282.82 1646.05 1301.79 1604.98C1307.8 1591.78 1318.84 1581.53 1332.44 1576.51C1344.93 1572.03 1355.24 1571.86 1367.21 1577.36C1369.82 1580.14 1371.55 1582.18 1371.8 1586.22C1373.7 1616.7 1332.34 1607.52 1320.58 1623.66C1316.02 1643.21 1334.75 1641.56 1346.95 1637.37L1348.98 1636.65L1353.57 1641.8ZM1331.8 1610.39C1342.45 1604.52 1356.71 1595.01 1349.32 1581.53C1348.05 1580.9 1345.16 1579.38 1343.94 1578.97C1335.53 1583.97 1321.31 1601.19 1326.28 1610.85L1331.8 1610.39Z" fill="#52AD5C"/>
<path d="M1686.06 1578.27C1697.89 1573.89 1703.99 1573.86 1716.23 1573.39C1745.98 1586.31 1719.21 1612.92 1696.85 1613.02C1670.78 1613.14 1670.02 1647.98 1701.71 1639.4L1707.16 1644.53C1645.46 1675.28 1634.79 1605.29 1686.06 1578.27ZM1679.54 1612.81C1697.63 1607.6 1712.29 1599.27 1708.39 1578.38C1704.56 1579.39 1698.59 1580.79 1695.09 1582.1C1685.3 1591 1683.7 1600.16 1679.54 1612.81Z" fill="#52AD5C"/>
<path d="M1686.05 1578.27C1697.89 1573.89 1703.98 1573.86 1716.23 1573.39C1713.95 1574.68 1709.93 1576.61 1708.38 1578.38C1704.56 1579.39 1698.59 1580.79 1695.08 1582.1L1686.05 1578.27Z" fill="#4AA952"/>
<path d="M501.303 1644.67C450.986 1671.55 427.931 1619.95 465.467 1587.55C477.479 1577.18 508.77 1565 520.242 1582.18C529.814 1596.51 508.364 1607.73 498.025 1611.64L495.893 1612.43C489.498 1613.74 479.064 1616.22 472.891 1616.5C469.272 1638.86 478.072 1646.06 499.404 1638.25L501.303 1644.67ZM491.387 1605.62C498.441 1598.48 505.99 1592.01 499.987 1581.92C482.892 1576.53 477.302 1600.71 473.815 1612.02C478.701 1611.4 486.577 1607.64 491.387 1605.62Z" fill="#52AD5C"/>
<path d="M491.387 1605.62C493.041 1611.53 491.344 1609.53 495.893 1612.42C489.497 1613.73 479.064 1616.22 472.891 1616.5L473.814 1612.02C478.7 1611.4 486.576 1607.64 491.387 1605.62Z" fill="#4AA952"/>
<path d="M740.848 1576.86C752.9 1572.74 764.421 1571.78 776.161 1576.81C779.639 1587.08 779.635 1585.56 777.055 1595.82C772.1 1615.54 700.074 1614.65 736.68 1642.05C741.199 1644.34 745.558 1646.69 750.277 1648.53C719.189 1657.77 695.728 1648.47 705.536 1612.76C710.789 1593.64 724.861 1585.38 740.848 1576.86ZM759.246 1579.67C754.894 1579.54 751.266 1580.28 746.982 1580.92C735.393 1594.1 734.662 1597.9 729.698 1614.82C748.125 1605.66 758.162 1602.27 759.246 1579.67Z" fill="#52AD5C"/>
<path d="M379.953 1528.01L398.007 1527.04C393.511 1551.39 369.883 1622.57 370.44 1637.44L372.67 1639.12C379.491 1637.41 383.536 1633.7 389.296 1629.54C386.755 1635.61 386.614 1635.37 381.908 1640.21C379.072 1642.66 370.207 1649.33 368.124 1649.94C318.868 1664.21 375.879 1561.39 371.314 1541.71C369.542 1534.08 366.022 1538.41 363.949 1531.8C368.491 1529.49 374.681 1528.92 379.953 1528.01Z" fill="#52AD5C"/>
<path d="M1882.62 1528.2C1888.01 1527.51 1888.94 1526.94 1894.14 1528.61C1898.92 1541.16 1865.17 1622.12 1868.96 1636.51C1878.18 1637.39 1886.57 1628.59 1894.51 1622.45C1888.96 1629.96 1884 1635.91 1877.98 1643.01C1869.2 1649.61 1859.49 1656.07 1849.9 1648.19C1839.53 1626.53 1866.18 1570.9 1870.06 1547C1871.04 1540.95 1867.7 1537.9 1863.73 1533.36L1862.46 1531.92C1867.4 1529.34 1876.71 1528.87 1882.62 1528.2Z" fill="#52AD5C"/>
<path d="M1827.95 1527.91C1833.93 1527.43 1835.01 1527.12 1841.04 1528.54C1842.69 1541.41 1817.3 1616.08 1814.83 1635.7L1816.58 1637.92C1824.7 1637.43 1827.12 1632.69 1835.08 1630.24C1831.41 1637.55 1830 1638.43 1824.02 1644.36C1817.18 1649.68 1808.91 1653.98 1800.27 1650.96C1781.53 1634.43 1816.7 1562.61 1817.27 1540.44C1817.33 1538.35 1810.77 1534.52 1808.34 1532.77C1813.27 1529.69 1821.92 1528.91 1827.95 1527.91Z" fill="#52AD5C"/>
<path d="M436.742 1528.14C438.183 1527.88 443.636 1527.93 445.424 1527.9C457.537 1537.19 413.681 1619.3 421.911 1637.41L424.884 1638.08C432.927 1635.29 438.845 1629.53 445.578 1624.08C439.506 1632.96 437.564 1635.94 429.846 1643.57C421.334 1649.73 412.957 1655.8 402.904 1650.16C388.622 1627.51 424.996 1565.02 421.832 1538.1C421.56 1535.76 418.76 1535.49 415.479 1534.07L415.276 1531.99C420.768 1529.37 430.36 1528.87 436.742 1528.14Z" fill="#52AD5C"/>
<path d="M1164.56 1528.06L1180.79 1527.07C1177.44 1550.28 1148.63 1622.52 1155.43 1636.47C1161.72 1637.46 1162.95 1632.69 1172.18 1630.47C1168.83 1637.29 1166.23 1638.97 1160.54 1644.3C1156.7 1647.84 1147.94 1653.03 1142.67 1653.03C1139.32 1653.02 1136.21 1651.31 1134.41 1648.49C1123.62 1631.17 1152.57 1565.98 1154.59 1544.01C1154.97 1539.87 1150.85 1536.86 1147.64 1533.75L1146.33 1532.51C1150.87 1529.28 1158.75 1528.9 1164.56 1528.06Z" fill="#52AD5C"/>
<path d="M1263.95 1550.82L1282.77 1550.53L1277.5 1574.49C1280.14 1580.42 1288.08 1574.21 1293.81 1581.55L1293.02 1584.12C1286.04 1586.98 1280.2 1586.5 1272.6 1586.73C1269.75 1596.95 1259 1629.17 1262.69 1638.03C1268.27 1638.85 1279.02 1631.84 1284.42 1628.76C1284.6 1632.19 1281.9 1634.93 1279.64 1638.55C1270.22 1648.98 1251.56 1657.58 1239.2 1647.27C1230.32 1630.82 1246.13 1608.63 1247.76 1589.57C1244.65 1583.59 1243.25 1589.42 1235.27 1585.14L1234.85 1581.94C1241.66 1575.37 1249.86 1579.71 1253.09 1575.25C1259.47 1566.46 1254.75 1560.35 1263.95 1550.82Z" fill="#52AD5C"/>
<path d="M2435.79 1605.56C2447.51 1577.45 2467.95 1558.33 2485.05 1595.86L2485.93 1597.84L2488.48 1598.39L2489.65 1599.22C2486.13 1608.01 2484.94 1631.3 2495.57 1635.2C2507.12 1639.43 2516.05 1627.69 2522.89 1620.76C2516.2 1634.25 2502.26 1656.98 2483.43 1651.71C2473.96 1649.06 2470.97 1639.08 2467.52 1630.85C2457.23 1643.35 2446.2 1658.23 2428.98 1647.69C2425.97 1642.49 2426.31 1645.11 2427.31 1639.69C2439.18 1625.7 2446.07 1638.87 2462.68 1630.04C2470.23 1619.9 2463.87 1599.7 2457.03 1590.67L2453 1590.14C2446.25 1593.16 2441.02 1599.94 2435.79 1605.56Z" fill="#52AD5C"/>
<path d="M669.43 1595.56C676.458 1585.5 687.959 1569.9 702.316 1579.2C707.441 1587.34 702.231 1597.97 695.138 1602.72C691.218 1605.34 683.994 1596.14 677.434 1596.42C674.104 1599.33 673.815 1599.51 671.241 1603.07C664.007 1618.45 657.245 1662.69 635.428 1648.4C626.154 1631.37 663.025 1597.94 637.842 1584.36L638.248 1581.98C646.307 1578.09 656.809 1576.93 665.838 1575.34C666.902 1582.35 667.764 1588.65 669.43 1595.56Z" fill="#52AD5C"/>
<path d="M1769.89 1575.66L1773.38 1576.33C1784.91 1586.06 1760.34 1620.56 1764.86 1634.96L1767.76 1636.02C1776.25 1633.52 1783.05 1626.32 1790.47 1620.38C1782.11 1632.69 1777.83 1639.56 1765.47 1648.66C1723.37 1671.36 1751.16 1600.65 1751.69 1589.62C1749.22 1586.37 1748.86 1586.08 1745.56 1583.9L1742.82 1582.11C1749.57 1576.91 1761.19 1576.61 1769.89 1575.66Z" fill="#52AD5C"/>
<path d="M2322.93 1589.88C2319.31 1587.8 2316.78 1586.78 2314.3 1583.41L2315.42 1580.31C2321.57 1576.89 2335.21 1575.61 2342.77 1574.48C2342.86 1581.38 2342.71 1586.11 2343.95 1592.94L2346.12 1593.25L2351.41 1586.69C2352.21 1588.3 2353.98 1592.39 2355.12 1593.3C2340.01 1607.22 2336.82 1630.15 2332.02 1650L2307.53 1651.98C2312.58 1630.9 2318.2 1611.47 2322.93 1589.88Z" fill="#52AD5C"/>
<path d="M318.978 1577.1C324.919 1576.46 327.653 1575.31 332.028 1579.02C337.222 1598.08 313.159 1627.58 320.455 1637.57C327.028 1637.58 332.742 1630.45 340.841 1628.11C336.783 1635.39 334.979 1636.9 329.15 1643.12C322.613 1647.75 307.919 1657.26 301.075 1649.03C288.149 1633.48 309.714 1606.58 307.651 1587.37C304.006 1585.15 302.876 1584.8 300.073 1581.67C304.657 1578.4 312.792 1578.06 318.978 1577.1Z" fill="#52AD5C"/>
<path d="M2405.7 1577.18C2410.39 1576.78 2413.86 1576 2418.24 1577.59C2422.08 1590.86 2403.93 1623.3 2408.31 1635.49L2411.56 1636.15C2418.84 1633.08 2423.73 1626.42 2429.24 1620.39C2425.07 1631.47 2423.49 1635.55 2414.91 1643.62C2406.99 1649.17 2402.74 1651.7 2393.11 1652.09C2373.28 1643.63 2393 1606.72 2394.74 1591.62C2395.21 1587.55 2389.91 1584.65 2387.14 1582.31C2389.18 1579.9 2401.45 1578.1 2405.7 1577.18Z" fill="#52AD5C"/>
<path d="M569.809 1639.77C563.482 1645.66 549.889 1654.84 541.109 1653.41C525.377 1642.45 543.267 1602.32 542.897 1587.67C542.867 1586.5 537.602 1586.18 536.364 1581.62C543.067 1576.58 560.509 1574.63 569.128 1573.4L568.876 1575.49C566.508 1596.37 558.348 1614.69 556.396 1633.12C559.294 1636.7 559.346 1635.61 565.31 1636.64L569.809 1639.77Z" fill="#52AD5C"/>
<path d="M1202.57 1577.15C1205.23 1576.8 1213.52 1575.24 1214.62 1578.48C1220.12 1594.71 1207.74 1613.76 1205 1629.88C1204.23 1634.43 1204.08 1633.37 1206.79 1636.67C1212.13 1636.72 1217.76 1632.99 1222.73 1630.37C1219.51 1636.49 1215.63 1640.02 1210.94 1645.04C1202.9 1651.05 1194.6 1655.98 1185.66 1649.35C1177.32 1632.33 1189.86 1608.53 1192.57 1589.59C1190.64 1586.07 1190.4 1585.8 1187.3 1583.43L1184.8 1581.55C1189.91 1578.48 1196.32 1578.2 1202.57 1577.15Z" fill="#52AD5C"/>
<path d="M2085.28 1651.56C2088.54 1641.8 2101.05 1600.58 2098.94 1588.53C2098.74 1587.35 2094.01 1587.58 2091.83 1582.7C2097.95 1578.15 2113.77 1575.44 2121.68 1574.02C2122.25 1581.81 2120.82 1590.08 2122.73 1597.07C2126.93 1596.29 2127.45 1593.34 2130.82 1588.48L2133.85 1593.98C2118.19 1610.51 2115.38 1628.34 2108.84 1650.1L2085.28 1651.56Z" fill="#4AA952"/>
<path d="M580.715 1621.38L581.746 1619.38C589.229 1604.61 590.926 1590.93 597.603 1576.43C599.342 1572.66 611.292 1573.18 615.015 1574.48C620.094 1585.63 601.405 1624.33 607.821 1636.8C613.073 1637.6 615.7 1634.25 621.205 1630.59C621.192 1641.32 592.91 1661.36 584.818 1646.3C582.834 1642.61 582.696 1631.36 582.559 1627.08L580.715 1621.38Z" fill="#52AD5C"/>
<path d="M1390.65 1626.78C1401.08 1627.69 1411.21 1634.21 1407.6 1646.47C1403.47 1660.55 1395.38 1666.58 1383.32 1673.8C1380.19 1673.09 1381.73 1673.77 1378.82 1671.47C1380.14 1666.34 1387.16 1660.58 1391.23 1656.55C1383.36 1649.9 1379.54 1648.66 1379.77 1638.23C1383.04 1631.92 1384.78 1631.24 1390.65 1626.78Z" fill="#4AA952"/>
<path d="M1367.43 1525.5C1373.5 1527.13 1375.78 1528.72 1377.36 1534.48C1374.6 1542.02 1352.26 1552.23 1342.81 1558.03C1336.52 1559.62 1338.88 1560.32 1334.33 1558.35C1335.02 1550.08 1360.15 1530.87 1367.43 1525.5Z" fill="#52AD5C"/>
<path d="M2409.31 1532.84C2413.64 1530.63 2418.85 1531.02 2422.8 1533.84C2426.76 1536.67 2428.81 1541.47 2428.13 1546.29C2427.44 1551.1 2424.13 1555.13 2419.54 1556.74C2413.07 1559.01 2405.94 1555.88 2403.24 1549.57C2400.55 1543.27 2403.2 1535.95 2409.31 1532.84Z" fill="#52AD5C"/>
<path d="M2130.82 1588.48C2137.07 1580.46 2142.75 1573.82 2153.18 1577.99C2158.89 1585.5 2159.2 1593.89 2152.7 1601.01C2143.59 1604.61 2140.07 1600.92 2133.85 1593.98L2130.82 1588.48Z" fill="#52AD5C"/>
<path d="M325.065 1532.84C329.338 1530.83 334.372 1531.32 338.187 1534.1C342.005 1536.88 344 1541.52 343.394 1546.21C342.788 1550.89 339.677 1554.87 335.279 1556.59C328.782 1559.13 321.443 1556.07 318.689 1549.66C315.931 1543.25 318.754 1535.81 325.065 1532.84Z" fill="#52AD5C"/>
<path d="M1208.29 1533.02C1212.37 1530.82 1217.33 1531.04 1221.2 1533.58C1225.08 1536.13 1227.24 1540.6 1226.84 1545.21C1226.44 1549.83 1223.54 1553.86 1219.29 1555.7C1213.09 1558.39 1205.87 1555.72 1202.92 1549.63C1199.97 1543.55 1202.34 1536.22 1208.29 1533.02Z" fill="#52AD5C"/>
<path d="M2351.41 1586.69C2358.56 1579.45 2364.03 1573.49 2374.25 1578.66C2379.56 1586.23 2379.52 1593.88 2372.67 1600.46C2366.11 1602.43 2369.38 1602.26 2362.46 1600.62L2355.12 1593.3C2353.98 1592.39 2352.21 1588.3 2351.41 1586.69Z" fill="#4AA952"/>
<path d="M1770.84 1532.43C1775.26 1531.81 1779.67 1533.64 1782.37 1537.19C1785.07 1540.75 1785.64 1545.48 1783.87 1549.58C1782.1 1553.68 1778.25 1556.51 1773.81 1556.97C1767.1 1557.67 1761.06 1552.86 1760.25 1546.16C1759.44 1539.46 1764.15 1533.35 1770.84 1532.43Z" fill="#52AD5C"/>
<path d="M2488.49 1598.39C2495.23 1585.12 2503.13 1574.29 2519.28 1577.82C2523.63 1581.58 2521.98 1579.33 2524 1585.09C2518.21 1599.43 2503.49 1588.72 2489.66 1599.22L2488.49 1598.39Z" fill="#4AA952"/>
<path d="M736.68 1642.06C751.357 1641.24 756.23 1633.32 769.241 1631.46C768.537 1637.77 755.69 1645.08 750.277 1648.53C745.558 1646.69 741.199 1644.34 736.68 1642.06Z" fill="#4AA952"/>
<path d="M1348.97 1636.66C1355.78 1631.75 1355.74 1630.13 1362.92 1629.26L1363.98 1631.54C1361.52 1636.97 1358.47 1638.35 1353.57 1641.8L1348.97 1636.66Z" fill="#4AA952"/>
<path d="M1701.7 1639.39C1709.68 1635 1716.74 1631 1725.12 1627.33C1719.3 1633.33 1713.78 1639.46 1707.15 1644.53L1701.7 1639.39Z" fill="#4AA952"/>
<path d="M580.706 1621.38L582.549 1627.08L569.8 1639.77L565.301 1636.64C571.444 1631.19 575.145 1627.44 580.706 1621.38Z" fill="#4AA952" fill-opacity="0.980392"/>
<path d="M1899.16 1346.64C1898.52 1341.16 1897.33 1339.55 1899.35 1335.43C1903.55 1341.09 1904.82 1348.3 1905.29 1355.33L1902.79 1356.01C1900.78 1352.22 1900.46 1350.78 1899.16 1346.64Z" fill="#002D8B" fill-opacity="0.0156863"/>
<path d="M499.41 1638.25C505.753 1634.83 513.882 1629.98 520.565 1627.87C513.885 1634.39 509.163 1639.49 501.31 1644.66L499.41 1638.25Z" fill="#4AA952" fill-opacity="0.976471"/>
</svg>
