<svg width="2442" height="554" viewBox="0 0 2442 554" fill="none" xmlns="http://www.w3.org/2000/svg">
<path d="M220.991 8.0625C228.897 48.1878 242.032 89.4723 252.001 129.195C255.275 142.232 262.312 162.504 264.611 174.815C257.03 176.888 250.605 180.14 243.456 183.391C238.4 186.146 219.676 197.029 214.876 197.398C205.627 200.233 202.242 204.624 198.526 213.6C197.143 219.175 188.939 237.179 185.062 240.291C180.291 246.685 176.824 252.214 175.399 260.178C180.782 266.066 181.841 289.964 175.891 294.163C172.969 303.272 175.486 306.616 182.422 313.072C187.034 315.907 197.909 336.836 199.16 342.638C202.993 351.465 207.742 354.287 216.583 358.117C226.64 363.751 235.517 368.679 245.903 373.637C252.731 376.104 260.312 379.414 267.388 379.939C259.315 402.672 254.01 425.051 247.183 448.052C237.38 481.071 228.693 513.123 220.262 546.485C210.943 543.627 201.831 541.647 192.339 539.473C161.577 531.705 110.923 501.943 89.6316 478.369C83.5587 470.089 78.7972 465.735 71.1644 459.209C47.0437 440.931 23.6957 389.16 13.6057 360.93C11.7475 351.759 10.1094 344.339 7.62239 335.333C-3.99561 306.625 -1.10718 244.16 8.08693 214.15C11.0527 206.622 12.9436 196.06 14.2063 188.031C25.7916 154.649 46.4367 118.239 71.4669 93.1094C79.0961 86.6397 83.8715 81.4412 90.7155 74.0804C114.049 48.2577 160.75 26.1949 193.068 14.0685C207.412 16.3843 209.245 15.7026 220.991 8.0625Z" fill="#FEC100"/>
<path d="M71.168 459.218C112.631 421.662 156.636 378.095 199.164 342.646C202.997 351.474 207.746 354.295 216.587 358.125C226.643 363.759 235.521 368.687 245.907 373.646C252.734 376.112 260.316 379.422 267.391 379.948C259.318 402.681 254.014 425.059 247.186 448.061C237.384 481.079 228.696 513.131 220.266 546.494C210.947 543.636 201.835 541.655 192.342 539.482C161.581 531.713 110.927 501.952 89.6353 478.378C83.5623 470.098 78.8008 465.743 71.168 459.218Z" fill="#FEC100"/>
<path d="M71.168 459.218C112.631 421.662 156.636 378.095 199.164 342.646C202.997 351.474 207.746 354.295 216.587 358.125C190.758 381.92 165.081 405.879 139.549 429.992C124.215 444.373 103.421 463 89.6353 478.378C83.5623 470.098 78.8008 465.743 71.168 459.218Z" fill="#FDFDFD"/>
<path d="M245.908 373.641C252.736 376.107 260.317 379.417 267.393 379.943C259.32 402.676 254.015 425.054 247.188 448.056C237.385 481.074 228.698 513.126 220.267 546.489C210.948 543.631 201.836 541.65 192.344 539.477C211.01 484.463 228.865 429.177 245.908 373.641Z" fill="#FDFDFD"/>
<path d="M220.987 8.0625C228.892 48.1878 242.027 89.4723 251.997 129.195C255.271 142.232 262.308 162.505 264.607 174.815C257.025 176.888 250.6 180.14 243.452 183.391C238.396 186.146 219.671 197.029 214.872 197.398C177.551 156.563 126.171 114.991 90.7109 74.0804C114.045 48.2577 160.746 26.1949 193.063 14.0685C207.408 16.3843 209.24 15.7026 220.987 8.0625Z" fill="#FEC100"/>
<path d="M220.986 8.0625C228.891 48.1878 242.026 89.4723 251.996 129.195C255.27 142.232 262.307 162.505 264.606 174.815C257.024 176.888 250.599 180.14 243.451 183.391C241.188 174.307 238.719 164.728 235.814 155.845C220.718 109.677 209.678 59.4902 193.062 14.0685C207.407 16.3843 209.239 15.7026 220.986 8.0625Z" fill="#FDFDFD"/>
<path d="M7.62891 335.334C63.9353 322.124 118.838 307.282 175.897 294.164C172.975 303.274 175.492 306.617 182.428 313.073C187.04 315.908 197.915 336.837 199.167 342.639C156.639 378.088 112.634 421.655 71.1709 459.21C47.0502 440.933 23.7022 389.161 13.6122 360.931C11.754 351.76 10.1159 344.34 7.62891 335.334Z" fill="#FEC100"/>
<path d="M7.62891 335.334C63.9353 322.124 118.838 307.282 175.897 294.164C172.975 303.274 175.492 306.617 182.428 313.073C128.786 327.448 65.9435 344.047 13.6122 360.931C11.754 351.76 10.1159 344.34 7.62891 335.334Z" fill="#FDFDFD"/>
<path d="M8.08693 214.158C26.1684 218.496 169.888 260.613 175.399 260.186C180.782 266.075 181.841 289.973 175.891 294.171C118.832 307.289 63.9288 322.131 7.62239 335.341C-3.99561 306.633 -1.10718 244.168 8.08693 214.158Z" fill="#FEC100"/>
<path d="M14.2014 188.035C70.941 206.142 127.897 223.565 185.057 240.295C180.286 246.689 176.819 252.218 175.394 260.182C169.883 260.609 26.1635 218.492 8.08203 214.154C11.0478 206.626 12.9387 196.064 14.2014 188.035Z" fill="#FDFDFD"/>
<path d="M90.7213 74.082C126.181 114.992 177.562 156.564 214.882 197.399C205.633 200.235 202.247 204.626 198.532 213.601C188.679 202.587 170.955 186.306 160.102 175.867C130.777 148.05 101.233 120.465 71.4727 93.111C79.1019 86.6414 83.8773 81.4428 90.7213 74.082Z" fill="#FDFDFD"/>
<path d="M473.897 76.002C478.567 83.2566 486.369 89.8771 493.121 95.3551C513.393 111.468 540.66 160.418 547.909 186.165C549.993 195.394 553.197 204.677 556.089 213.711C566.017 245.179 569.033 304.708 556.904 335.802C555.195 344.222 553.281 352.865 552.03 361.345C544.747 388.987 515.743 441.959 493.747 459.832L367.843 342.459C373.011 332.305 378.377 322.254 383.939 312.309C381.752 305.658 380.62 298.289 385.961 292.721C387.358 283.911 387.196 271.882 385.489 263.133C382.972 257.175 381.098 247.364 379.587 240.808C376.637 232.089 371.958 223.955 366.812 216.382C359.569 211.247 355.82 205.588 350.504 198.604C381.31 164.141 420.201 132.74 452.415 99.1123C459.929 91.2682 467.067 84.6673 473.897 76.002Z" fill="#FEC100"/>
<path d="M473.897 76.002C478.567 83.2566 486.369 89.8771 493.121 95.3551C513.393 111.468 540.66 160.418 547.909 186.165C492.264 205.778 436.14 223.997 379.587 240.808C376.637 232.089 371.958 223.955 366.812 216.382C359.569 211.247 355.82 205.588 350.504 198.604C381.31 164.141 420.201 132.74 452.415 99.1123C459.929 91.2682 467.067 84.6673 473.897 76.002Z" fill="#FEC100"/>
<path d="M473.897 76.002C478.567 83.2566 486.369 89.8771 493.121 95.3551C466.033 120.521 439.087 145.836 412.281 171.301C398.378 184.556 379.165 202.272 366.812 216.382C359.569 211.247 355.82 205.588 350.504 198.604C381.31 164.141 420.201 132.74 452.415 99.1123C459.929 91.2682 467.067 84.6673 473.897 76.002Z" fill="#FDFDFD"/>
<path d="M383.94 312.311C435.345 329.007 503.729 343.206 552.031 361.347C544.748 388.988 515.743 441.961 493.748 459.833L367.844 342.46C373.012 332.306 378.378 322.255 383.94 312.311Z" fill="#FEC100"/>
<path d="M379.582 240.807C436.136 223.996 492.259 205.777 547.905 186.164C549.989 195.394 553.193 204.676 556.084 213.71C517.261 224.376 478.54 235.416 439.929 246.83C426.596 250.727 397.508 258.344 385.485 263.132C382.968 257.174 381.093 247.363 379.582 240.807Z" fill="#FDFDFD"/>
<path d="M385.958 292.725C442.249 307.457 501.11 319.626 556.901 335.805C555.191 344.225 553.278 352.868 552.026 361.349C503.724 343.208 435.34 329.009 383.935 312.312C381.748 305.661 380.617 298.292 385.958 292.725Z" fill="#FDFDFD"/>
<path d="M1347.58 122.63L1404.37 122.642C1431.05 170.589 1453.52 230.983 1480.58 279.137C1483.96 273.081 1486.86 266.737 1489.84 260.474C1511.66 214.613 1531.84 167.968 1555.19 122.846C1572.43 122.063 1593.95 122.608 1611.52 122.586C1612.91 183.408 1611.5 245.914 1611.76 306.912C1611.88 336.09 1612.49 367.276 1611.76 396.244C1598.8 396.613 1584.28 396.23 1571.2 396.174L1571.17 231.757C1570.91 214.667 1571.06 197.573 1571.6 180.491C1546.62 222.745 1519.84 285.715 1495.86 332.12C1484.66 332.548 1472.98 332.12 1461.73 331.886C1459.02 325.198 1455.63 318.773 1452.57 312.239C1431.78 267.776 1409.36 224.083 1388.39 179.709C1387.28 226.667 1386.33 272.547 1387 319.578C1387.36 345.233 1386.4 370.472 1387.68 396.247C1375.12 396.694 1360.2 396.255 1347.45 396.211L1347.58 122.63Z" fill="black"/>
<path d="M350.601 358.822C359.707 354.571 361.691 350.4 367.836 342.461L493.74 459.834C484.952 464.594 482.139 469.795 476.359 478.05C445.782 505.362 411.434 526.667 372.18 539.16C360.42 540.098 355.551 541.615 344.804 547.216C340.765 548.671 330.837 549.755 326.049 550.495C288.89 556.244 257.039 554.2 220.258 546.492C228.688 513.13 237.376 481.078 247.178 448.059C254.006 425.058 259.31 402.68 267.383 379.946C273.926 379.282 295.293 378.589 300.737 380.603C307.715 379.759 317.023 376.206 323.725 373.722C332.035 368.767 341.893 362.691 350.601 358.822Z" fill="#FEC100"/>
<path d="M350.602 358.822C359.709 354.571 361.692 350.4 367.838 342.461L493.742 459.834C484.954 464.594 482.141 469.795 476.361 478.05C445.784 505.362 411.436 526.667 372.182 539.16C355.6 487.302 336.738 426.008 323.727 373.722C332.037 368.767 341.895 362.691 350.602 358.822Z" fill="#FEC100"/>
<path d="M350.602 358.822C359.708 354.571 361.692 350.4 367.837 342.461L493.741 459.834C484.953 464.594 482.14 469.795 476.36 478.05C465.119 465.706 448.47 451.152 436.355 439.014C408.485 411.096 380.053 385.039 350.602 358.822Z" fill="#FDFDFD"/>
<path d="M323.733 373.725C336.745 426.01 355.607 487.304 372.189 539.162C360.428 540.1 355.559 541.617 344.813 547.218C340.908 522.577 332.038 492.349 325.424 468.057C317.621 439.399 309.816 408.699 300.746 380.605C307.724 379.761 317.032 376.208 323.733 373.725Z" fill="#FDFDFD"/>
<path d="M220.992 8.06813C252.919 -6.15616 311.679 1.56216 345.142 7.50105C354.218 11.7639 362.654 13.3143 372.501 14.8926C404.224 27.2257 451.517 49.7354 473.895 76.0023C467.065 84.6676 459.928 91.2686 452.414 99.1126C420.199 132.74 381.309 164.142 350.503 198.604C341.259 192.233 331.496 188.445 321.825 182.422C317.096 177.782 309.103 177.176 302.684 176.251C299.385 176.444 267.481 175.31 264.612 174.821C262.313 162.51 255.276 142.238 252.002 129.201C242.033 89.4779 228.898 48.1934 220.992 8.06813Z" fill="#FEC100"/>
<path d="M220.992 8.06813C252.919 -6.15616 311.679 1.56216 345.142 7.50105C338.703 48.1487 325.889 89.355 315.487 129.151C313.805 135.581 303.137 171.81 302.684 176.251C299.385 176.444 267.481 175.31 264.612 174.821C262.313 162.51 255.276 142.238 252.002 129.201C242.033 89.4779 228.898 48.1934 220.992 8.06813Z" fill="#FEC100"/>
<path d="M345.141 7.49609C354.217 11.7589 362.654 13.3094 372.501 14.8877C358.584 64.2956 342.935 113.516 328.207 162.715C326.291 169.117 324.087 176.132 321.824 182.417C317.095 177.777 309.103 177.171 302.684 176.246C303.136 171.805 313.804 135.576 315.486 129.146C325.889 89.3501 338.702 48.1437 345.141 7.49609Z" fill="#FDFDFD"/>
<path d="M2203.01 198.214C2209.48 197.652 2219.21 197.216 2225.62 197.384C2248.43 197.915 2270.05 207.695 2285.5 224.481C2307.93 248.415 2314.94 283.006 2313.95 314.832C2265.17 315.763 2214.29 314.748 2165.06 315.167C2176.6 374.629 2233.31 384.73 2275.64 347.379C2281.8 341.853 2302.99 353.111 2310.73 356.242C2295.38 380.104 2282.27 390.837 2253.77 397.985C2153.09 423.232 2089.16 326.308 2139.27 240.054C2152.61 217.1 2176.45 203.44 2203.01 198.214ZM2165.03 283.115C2183.14 283.238 2202.87 284.49 2220.27 284.409C2237.93 284.439 2255.41 284.677 2273.04 283.587C2267.71 253.882 2251.94 227.308 2217.33 230.453C2183.41 234.107 2170.6 250.912 2165.03 283.115Z" fill="black"/>
<path d="M811.132 110.464C856.956 105.142 899.363 125.979 928.122 160.696C916.736 168.029 904.872 176.06 892.885 182.225C877.825 167.847 861.244 155.612 840.259 152.064C703.921 129.013 670.9 331.351 802.45 360.733C830.848 367.077 856.291 356.791 879.543 341.064L894.62 326.667C907.97 332.427 917.629 338.955 929.89 346.587C928.896 347.947 927.881 349.288 926.842 350.612C878.049 413.024 785.504 415.795 725.079 369.066C663.967 321.803 656.723 221.253 705.285 162.978C733.946 128.58 767.671 114.573 811.132 110.464Z" fill="black"/>
<path d="M1709.44 198.301C1732.25 196.127 1755.66 197.099 1774.05 212.941C1803.71 238.493 1796.35 284.482 1796.75 319.696C1797.04 345.896 1795.6 369.721 1797.4 396.086C1784.01 396.069 1770.62 396.192 1757.23 396.449C1756.72 388.53 1756.58 379.839 1756.3 371.841C1732.08 399.759 1703.65 407.304 1667.43 396.823C1653.04 392.661 1642.28 381.373 1635.98 367.919C1635.04 364.148 1634.01 360.031 1633.57 356.181C1631.89 341.879 1636.21 327.52 1645.51 316.523C1669.13 288.546 1720.87 284.937 1755.09 281.406C1756.66 250.6 1750.52 224.939 1712.76 232.702C1695.96 236.158 1693.91 248.703 1686.08 262.114C1673.91 261.891 1658.64 260.145 1646.2 259.134C1658.29 222.838 1669.99 206.536 1709.44 198.301ZM1686.14 367.162C1710.58 377.325 1739.6 372.562 1752.29 346.488C1756.86 337.096 1755.92 320.875 1755.27 310.263C1753.06 307.533 1754.47 308.229 1751.34 307.528C1727.68 309.888 1695.59 313.983 1678.35 332.605C1667.57 344.239 1675 358.81 1686.14 367.162Z" fill="black"/>
<path d="M1281.78 200.691C1296.47 200.33 1311.15 200.361 1325.83 200.78C1311.2 238.073 1298.24 275.935 1284.21 313.479C1264.62 364.505 1244.41 425.676 1223.16 474.536C1209.26 474.444 1195.36 474.777 1181.48 475.531C1190.05 451.943 1203.45 419.737 1210.03 396.426C1201.13 370.435 1186.98 337.721 1176.97 310.753L1149.7 238.905C1145.74 228.589 1139.43 209.448 1134.1 200.59C1149.46 200.333 1164.82 200.42 1180.17 200.85C1192.67 235.358 1204.51 270.103 1215.68 305.066C1220.65 320.117 1227.41 336.883 1231.44 351.711C1232.7 344.884 1234.8 338.297 1237 331.723C1251.62 287.97 1265.1 243.724 1281.78 200.691Z" fill="black"/>
<path d="M2355.63 142.51L2395.47 142.912C2395.28 161.936 2394.8 181.291 2395.65 200.273C2409.21 201.052 2427.91 200.647 2441.91 200.692C2441.69 212.514 2442.35 221.643 2441.71 234.247L2396.83 233.856C2396.45 236.747 2396.15 239.644 2395.92 242.546C2393.56 274.073 2395.5 310.665 2395.86 342.535C2396.19 372.607 2422.03 367.409 2441.76 364.967L2441.11 386.787C2441.06 390.91 2441.11 390.619 2439.11 394.237C2432.72 397.664 2425.63 398.083 2418.51 398.667C2346.61 404.559 2353.51 358.059 2353.87 302.12C2353.98 279.655 2353.9 257.19 2353.63 234.728C2344.91 234.088 2334.37 234.093 2325.49 233.873C2325.35 222.515 2325.15 212.045 2324.47 200.714C2334.09 200.795 2344.2 200.22 2353.85 199.82C2354.38 191.035 2352.38 147.189 2355.63 142.51Z" fill="black"/>
<path d="M1042.98 144.892L1085.15 144.713C1084.87 163.166 1084.89 181.626 1085.23 200.079C1099.25 200.741 1116.6 200.32 1130.84 200.272C1130.13 213.407 1131.35 219.812 1129.33 233.956C1114.79 234.104 1100.25 234.162 1085.72 234.132C1083.58 268.248 1085.9 303.937 1084.94 338.098C1083.93 374.12 1102.85 369.1 1130.63 366.994L1132.49 368.81L1132.46 374.919C1132.39 381.699 1132.27 388.479 1132.1 395.256C1113.5 400.208 1082.3 403.264 1064.94 394.04C1038.33 379.903 1043.17 339.967 1043.22 314.505L1043.37 234.511C1011.53 233.497 1014.74 232.64 1017.73 200.822C1026.49 200.797 1034.38 200.437 1043.13 199.968C1043.31 181.464 1043.54 163.396 1042.98 144.892Z" fill="black"/>
<path d="M1918.24 198.279C1924.76 197.578 1932.64 197.958 1939.3 198.056C1939.52 212.959 1940.03 228.024 1938.94 242.871C1931.79 242.17 1924.57 241.416 1917.49 241.039C1857.45 237.838 1864.02 299.118 1864.33 339.793C1864.47 358.414 1864.62 377.726 1864.11 396.157C1855.41 396.414 1832.08 398.503 1824.14 394.925C1822.49 394.182 1822.79 390.62 1822.57 388.184C1822.82 325.331 1822.71 262.479 1822.24 199.629C1833.43 198.925 1851.84 200.299 1863.85 200.648C1862.65 212.629 1862.74 224.705 1864.12 236.667C1879.75 212.146 1888.28 203.065 1918.24 198.279Z" fill="black"/>
<path d="M1956.74 122.548C1970.42 122.244 1984.95 122.668 1998.69 122.842L1998.31 395.986C1985.01 396.514 1970.25 396.212 1956.84 396.218L1956.74 122.548Z" fill="black"/>
<path d="M2078.49 200.808C2089.98 199.495 2114.86 200.47 2127.44 200.711L2078.39 259.563C2068.88 270.988 2056.05 285.59 2048.2 297.881C2070.38 325.855 2111.72 369.011 2130.11 395.686C2114.08 397.261 2097.35 396.909 2081.27 396.024C2070.44 386.171 2006.68 309.823 2000.43 297.94C2017.56 274.165 2038.5 251.44 2056.08 227.841C2062.73 218.907 2070.9 208.926 2078.49 200.808Z" fill="black"/>
<path d="M954.949 200.722C969.257 200.462 984.065 200.675 998.415 200.689L997.22 395.762C988.742 397.237 965.995 396.376 956.449 396.22C956.488 331.043 957.231 265.807 954.949 200.722Z" fill="black"/>
<path d="M973.334 116.33C982.198 114.816 991.182 118.23 996.805 125.247C1002.43 132.261 1003.8 141.776 1000.39 150.095C996.981 158.414 989.327 164.227 980.399 165.283C967.077 166.856 954.928 157.526 953.015 144.248C951.098 130.971 960.113 118.588 973.334 116.33Z" fill="black"/>
</svg>
