<svg width="2524" height="1218" viewBox="0 0 2524 1218" fill="none" xmlns="http://www.w3.org/2000/svg">
<path d="M51.8593 0.78305C104.762 -0.741014 162.889 0.429714 216.161 0.427016H520.631L1451.06 0.464719L2129.88 0.413516L2353.27 0.42965C2392.29 0.44044 2431.37 0.130222 2470.38 0.823469C2497.6 1.30901 2519.64 22.2925 2521.68 49.4263C2523.75 76.9754 2522.53 104.694 2522.98 132.352C2523.62 214.138 2523.79 295.928 2523.49 377.718L2524 1143.54C2524.22 1194.42 2509.96 1217.2 2454.89 1216.99C2438.14 1217.03 2421.12 1217.14 2404.38 1216.75C2393.89 1216.49 2382.84 1214.81 2372.27 1214.78L2081.53 1211.71L823.094 1212.19C682.77 1212.11 542.448 1213.03 402.129 1214.05C385.097 1214.18 368.063 1216.78 351.23 1216.86C288.069 1217.17 224.819 1216.91 161.667 1216.81C128.284 1216.76 94.9296 1217.33 61.5947 1217.67C48.8759 1217.8 37.2631 1215.19 26.664 1208.46C15.2313 1201 5.04735 1189.55 3.08575 1175.68C0.569297 1157.89 1.26659 1140.05 1.28682 1122.15C1.30192 1108.68 1.27361 1095.29 1.15546 1081.83L1.01438 822.731L0.503206 352.467C-0.0263054 284.936 -0.137979 217.4 0.168452 149.866C0.24506 120.593 -0.195165 91.2855 0.299279 62.0127C0.885976 27.2937 16.409 6.63383 51.8593 0.78305Z" fill="#1A191A"/>
<path d="M52.666 12.8325C97.8586 11.1439 150.163 12.4899 195.873 12.471L469.932 12.4602L1279.84 12.5357L2086.31 12.4278L2329.96 12.5546C2374.55 12.5114 2419.42 12.2794 2464.01 12.684C2475.91 12.7919 2483.33 15.3249 2493.07 22.3275C2502.25 28.9336 2509.55 40.9831 2510.4 52.4041C2511.6 68.2975 2511.22 86.1385 2511.24 102.248L2511.26 194.552L2511.2 488.092L2511.13 943.838L2511.24 1081.75C2511.33 1107.79 2511.7 1133.85 2511.21 1159.89C2510.61 1191.1 2491.96 1204.86 2462.53 1206.93C2426.71 1208.24 2385.07 1207.27 2348.69 1207.3L2129.3 1207.3L1455.01 1207.17L567.399 1207.21L253.787 1207.26C192.156 1207.31 130.399 1207.46 68.7736 1207.12C57.6924 1206.8 47.0072 1206.79 36.9665 1201.31C14.1921 1188.86 12.5715 1170.9 12.602 1148C12.6349 1123.32 12.5642 1099.25 12.6403 1074.89L12.793 900.455L12.7687 353.357L12.8172 155.347C12.8234 123.957 12.5839 92.5342 12.7331 61.1493C12.8669 33.0229 25.8983 18.9071 52.666 12.8325Z" fill="#FEFEFE"/>
<path d="M35.0342 612.75L2488.41 612.726L2488.45 975.439L2488.48 1100.8C2488.48 1123.01 2488.74 1145.64 2488.06 1167.85C2487.91 1172.59 2486.25 1175.85 2483.95 1179.92C2480.2 1182.09 2478.2 1182.93 2473.74 1182.98C2441.23 1183.34 2408.24 1183.02 2375.75 1182.99L2186.07 1182.99L1587.08 1182.97L560.734 1183L211.98 1182.96C160.208 1182.95 108.399 1183.16 56.6352 1183.15C46.8156 1183.15 45.1551 1183.66 37.8873 1177.34C33.5115 1164.27 35.1084 1027.08 35.1089 1002.02L35.0342 612.75Z" fill="#EC191C"/>
<path d="M728.241 682.839L847.091 683.06C857.358 708.664 867.206 739.774 876.183 765.948L930.103 923.684C939.258 890.729 954.134 854.073 965.345 821.353C980.993 775.675 996.501 728.094 1013.55 683.03L1130.01 682.923C1134.11 730.584 1135.01 793.294 1136.76 841.978L1147.33 1104.6C1119.27 1105.04 1085.83 1105.4 1058.09 1104.1L1050.48 896.685C1049.65 872.71 1047.72 845.603 1048.85 822.065C1036.12 851.821 1022.31 894.182 1011.34 925.025C993.167 975.025 975.334 1025.15 957.843 1075.39L898.583 1075.4C876.75 1008.92 850.889 943.273 827.974 877.118C821.924 859.646 815.631 841.355 808.334 824.445C806.27 917.766 803.597 1011.07 800.309 1104.36C771.392 1104.99 742.462 1104.87 713.551 1104C714.268 1094.92 714.603 1085.68 714.994 1076.58C720.618 945.396 722.525 814.008 728.241 682.839Z" fill="#FEFEFE"/>
<path d="M87.8131 676.056C100.345 677.251 127.083 683.835 140.394 686.829L151.67 721.802C255.859 720.431 362.26 722.301 466.558 721.651C493.664 721.484 630.436 719.711 647.398 724.872L648.323 726.857C648.369 737.25 644.398 749.78 641.493 759.852C623.79 821.222 606.553 882.703 589.783 944.331C588.402 949.405 586.147 954.002 583.104 958.272C571.996 962.806 492.119 964.074 475.052 964.996C392.561 969.461 309.39 971.325 226.913 975.781C219.57 992.252 210.321 1010.47 202.487 1026.9L470.787 1027.07L542.329 1027.05C555.601 1026.99 587.935 1022.4 593.654 1036.74C590.932 1045.16 582.608 1045.45 574.947 1045.56C542.931 1046 510.89 1045.77 478.869 1045.72L306.717 1045.72C268.974 1045.79 220.059 1046.68 181.412 1045.06C178.725 1044.95 176.551 1041.87 175.141 1039.66C176.198 1028.17 202.169 979.951 208.805 966.796C181.892 878.948 154.324 791.305 126.099 703.872C113.026 700.109 85.456 699.68 81.8711 685.775C82.8435 680.582 84.1699 679.837 87.8131 676.056Z" fill="#1A191A"/>
<path d="M230.422 739.904C250.391 739.408 271.078 739.67 291.107 739.678C291.829 761.185 293.645 782.092 293.936 803.842L237.055 803.375C234.384 782.548 232.415 760.82 230.422 739.904Z" fill="#EC191C"/>
<path d="M308.501 740.249C325.724 739.297 343.948 739.785 361.258 739.922C361.371 758.033 363.068 784.787 361.868 802.093L359.702 803.769C342.395 803.736 325.088 803.844 307.781 804.092C307.134 789.135 304.727 755.015 305.763 741.733L308.501 740.249Z" fill="#EC191C"/>
<path d="M443.417 739.67L497.226 739.575C497.547 760.869 497.585 782.168 497.337 803.464C479.701 803.694 460.843 804.241 443.32 803.696L443.417 739.67Z" fill="#EC191C"/>
<path d="M375.727 739.772C393.473 739.629 411.22 739.631 428.966 739.785L429.317 803.914C411.824 804.012 394.334 803.834 376.849 803.378C375.673 783.557 375.961 759.895 375.727 739.772Z" fill="#EC191C"/>
<path d="M511.192 739.675L564.105 739.82C563.809 754.597 564.944 790.872 563.061 803.723C546.237 803.256 528.162 803.532 511.243 803.499C510.76 782.791 511.181 760.505 511.192 739.675Z" fill="#EC191C"/>
<path d="M238.336 817.715L294.794 817.672C295.441 837.884 296.339 858.091 297.491 878.281C280.066 878.648 261.753 878.308 244.254 878.232C243.375 859.008 239.687 837.752 238.336 817.715Z" fill="#EC191C"/>
<path d="M158.277 739.88C177.111 739.273 197.765 739.637 216.737 739.596C218.215 761.219 221.743 782.278 222.747 804.106C208.733 803.391 192.613 803.836 178.438 803.901L158.277 739.88Z" fill="#EC191C"/>
<path d="M443.512 817.691C461.307 817.839 479.423 817.602 497.248 817.548L497.272 878.297L443.531 878.448L443.512 817.691Z" fill="#EC191C"/>
<path d="M308.68 817.678L362.578 817.729C362.68 837.927 363.093 858.121 363.813 878.306L311.569 878.333L308.68 817.678Z" fill="#EC191C"/>
<path d="M246.344 892.174C263.545 892.349 280.747 892.363 297.946 892.217C298.132 911.925 299.597 934.036 300.49 953.897C284.189 954.86 267.875 955.54 251.553 955.939C249.627 935.028 247.266 913.052 246.344 892.174Z" fill="#EC191C"/>
<path d="M376.707 817.789L429.197 817.557C428.638 837.113 429.175 858.677 429.286 878.379C412.473 878.433 395.112 878.843 378.396 877.478C377.193 858.531 377.144 836.86 376.707 817.789Z" fill="#EC191C"/>
<path d="M511.087 817.742L562.703 817.572C562.023 837.258 562.234 858.606 562.05 878.424L511.082 878.198L511.087 817.742Z" fill="#EC191C"/>
<path d="M323.874 892.684C336.813 892.247 350.597 892.366 363.61 892.253C363.737 907.191 365.498 936.035 364.171 949.763C361.009 951.964 357.063 951.395 352.979 951.443C340.255 952.444 326.903 952.711 314.106 953.164C313.653 937.878 311.562 907.869 312.768 894.303C315.765 891.975 319.784 892.668 323.874 892.684Z" fill="#EC191C"/>
<path d="M450.947 892.663C466.069 892.237 481.196 892.091 496.321 892.229C496.453 901.036 498.142 939.958 494.932 945.482L488.436 945.841C473.465 946.655 458.481 947.216 443.491 947.524C443.491 934.555 441.535 906.773 445.002 894.228C445.463 892.558 448.317 892.935 450.947 892.663Z" fill="#EC191C"/>
<path d="M378.692 892.459C395.459 892.89 412.232 892.877 428.997 892.421L429.013 948.501C412.486 948.792 395.459 949.696 378.792 950.101C378.476 930.889 378.444 911.673 378.692 892.459Z" fill="#EC191C"/>
<path d="M511.096 892.28C527.732 892.577 544.375 892.566 561.01 892.245C561.08 905.463 561.771 930.452 560.454 942.933C543.992 943.872 527.51 944.487 511.024 944.775C510.959 927.277 510.983 909.779 511.096 892.28Z" fill="#EC191C"/>
<path d="M578.351 740.145C594.809 739.888 611.269 739.729 627.728 739.67C622.622 756.335 617.659 773.04 612.836 789.789L608.779 804.107L577.518 803.217C577.424 782.19 577.701 761.163 578.351 740.145Z" fill="#EC191C"/>
<path d="M183.395 818.021L224.512 817.611C225.882 837.918 228.353 857.563 229.408 878.212L201.878 878.35C196.542 859.066 189.205 837.729 183.395 818.021Z" fill="#EC191C"/>
<path d="M206.344 892.452L230.607 892.126C232.719 913.679 235.047 935.207 237.586 956.714C234.508 956.703 231.43 956.66 228.352 956.582C221.49 952.174 209.173 902.894 206.344 892.452Z" fill="#EC191C"/>
<path d="M577.214 817.868L605.125 817.501C599.323 833.777 595.244 851.168 590.936 867.941C589.124 874.636 589.31 875.858 584.265 880.025L579.869 879.561C574.282 872.632 577.066 830.179 577.214 817.868Z" fill="#EC191C"/>
<path d="M576.115 891.102C581.2 892.288 579.468 890.937 582.643 894.063C583.379 901.268 579.997 909.887 577.944 917.343L576.876 918.667L576.226 918.597C575.025 911.02 575.843 899.126 576.115 891.102Z" fill="#EC191C"/>
<path d="M1653.23 682.853L1760.53 682.834C1842.58 682.894 1957.1 674.151 1995.21 768.341C2007.71 799.248 2006.9 838.27 1993.73 868.897C1979.04 903.071 1948.92 921.632 1915.46 934.704C1924.74 951.091 1944.99 979.239 1956.07 995.634C1980.39 1031.87 2004.89 1067.98 2029.58 1103.96C2006.48 1104.67 1983.36 1104.9 1960.24 1104.66L1911.14 1104.41C1885.14 1057.97 1852.25 993.134 1824.7 949.348L1756.45 949.926C1756.03 1000.85 1756.93 1053.3 1756.94 1104.42C1723.67 1104.9 1686.24 1105.35 1653.14 1104.02L1653.23 682.853Z" fill="#FEFEFE"/>
<path d="M1756.31 758.231C1809.31 759.054 1918.96 742.815 1889.85 838.966C1887.96 845.197 1881.45 852.145 1876.84 856.815C1846.51 879.109 1793.85 873.218 1756.34 873.002L1756.31 758.231Z" fill="#EC191C"/>
<path d="M1350.54 682.948C1383.49 682.716 1416.43 682.783 1449.37 683.145C1506.87 820.03 1561.71 965.949 1616.92 1104.54C1581.77 1104.79 1546.61 1104.83 1511.46 1104.65C1500.14 1076.68 1490.59 1048.44 1480.76 1019.94L1457.17 1019.94L1320.34 1020.07L1290.58 1104.6C1257.31 1105.05 1224.03 1104.79 1190.77 1103.83C1210.63 1054.63 1231.38 996.128 1250.27 945.952L1350.54 682.948Z" fill="#FEFEFE"/>
<path d="M1400.15 798.313C1403.9 801.944 1447.97 929.987 1452.93 944.961C1436.95 944.505 1419.77 944.769 1403.69 944.766L1347.42 944.715C1365.59 898.786 1384.14 844.931 1400.15 798.313Z" fill="#EC191C"/>
<path d="M2037.46 682.797L2405.13 682.918L2405.98 773.324C2363 773.99 2318.46 773.372 2275.36 773.361L2275.34 972.552L2275.44 1104.57C2238.41 1104.94 2201.37 1104.89 2164.35 1104.41V773.351L2037.39 773.229C2035.69 745.785 2037 710.761 2037.46 682.797Z" fill="#FEFEFE"/>
<path d="M225.74 1051.81C244.779 1049.77 261.907 1063.45 264.133 1082.47C266.358 1101.49 252.855 1118.75 233.859 1121.17C221.4 1122.76 209.051 1117.53 201.514 1107.48C193.98 1097.43 192.421 1084.12 197.43 1072.6C202.442 1061.08 213.251 1053.14 225.74 1051.81Z" fill="#1A191A"/>
<path d="M506.379 1053.01C524.938 1047.77 544.23 1058.58 549.45 1077.14C554.669 1095.71 543.834 1114.99 525.262 1120.18C506.725 1125.37 487.489 1114.56 482.28 1096.03C477.069 1077.49 487.853 1058.25 506.379 1053.01Z" fill="#1A191A"/>
<path d="M612.102 117.73C655.452 116.978 700.303 117.636 743.762 117.73L797.045 379.424C815.827 294.233 841.253 203.634 861.954 117.59L973.645 117.615C975.997 128.234 978.894 139.21 981.726 149.749C1002.29 226.257 1020.68 303.736 1041.34 380.147L1096.98 117.693C1138.93 117.507 1180.88 117.531 1222.83 117.763C1212.22 153.302 1201.78 190.937 1190.41 226.014C1162.45 321.963 1129.7 422.497 1103.59 518.411L989.292 518.273C967.214 432.34 940.107 346.065 918.101 259.412C914.783 269.708 911.595 281.636 908.97 292.205C890.215 367.755 865.474 442.879 847.166 518.416L733.654 518.319C726.093 487.735 711.67 444.883 702.367 414.211L645.971 229.257C634.747 192.671 622.209 154.454 612.102 117.73Z" fill="#1A191A"/>
<path d="M386.436 110.28C440.339 106.321 494.067 119.989 539.524 149.226C539.446 171.057 538.712 193.546 538.267 215.422C497.611 194.635 402.021 162.174 358.484 193.716C316.914 223.833 405.601 257.176 425.276 266.434C484.108 294.112 571.543 329.392 570.461 407.351C569.822 503.06 465.784 528.721 387.622 527.386C329.646 524.658 289.435 513.85 237.736 488.421L237.398 412.633C285.885 436.584 335.297 456.461 390.476 456.24C408.703 456.165 431.958 454.924 445.046 440.87C449.54 436.044 454.711 426.423 453.462 419.962C445.761 380.137 357.516 357.376 324.696 337.943C304.357 328.003 285.877 317.184 268.344 302.717C224.639 266.657 222.916 202.981 260.599 161.422C292.834 125.869 339.241 113.134 386.436 110.28Z" fill="#1A191A"/>
<path d="M2113.18 110.286C2171.19 108.282 2216.46 118.446 2265.51 149.31C2265.42 171.084 2264.72 193.54 2264.33 215.36C2224.82 194.671 2124.77 161.316 2082.7 195.024C2049.01 226.449 2123.05 252.995 2141.39 261.88C2202.82 291.639 2297.82 325.33 2296.51 407.578C2294.97 504.001 2192.61 527.909 2114.29 527.402C2056.56 524.694 2015.37 514.087 1963.76 488.559L1963.57 412.722C2011.49 436.36 2055.13 453.867 2109.34 456.189C2131.93 457.155 2184.54 452.119 2178.78 420.111C2171.3 378.545 2082.61 357.716 2049.82 337.323C2030.48 325.298 2010.38 318.182 1993.4 301.959C1949.89 265.468 1949.38 201.916 1987.25 160.68C2019.63 125.416 2066.09 112.983 2113.18 110.286Z" fill="#1A191A"/>
<path d="M1682.53 110.285C1740.41 108.154 1784.65 118.763 1833.55 149.301L1832.73 215.383C1792.7 195.212 1694.27 161.213 1651.5 194.297C1614.57 222.86 1690.76 253.495 1710.32 262.297C1753.93 282.399 1797.37 300.55 1832.91 333.599C1874.92 372.675 1876.2 440.416 1834.85 480.492C1795.82 518.329 1736.77 528.323 1684.09 527.107C1625.51 525.593 1584.19 513.501 1532.18 488.49L1531.99 412.807C1584.6 438.358 1628.59 456.36 1689.79 456.166C1727.93 456.045 1772.31 433.785 1730.52 393.771C1718.96 382.709 1695.92 373.972 1680.99 366.416C1624.59 337.872 1535.26 313.962 1528.57 238.91C1526.06 208.591 1535.51 182.73 1555.84 160.679C1589.14 124.579 1635.11 112.912 1682.53 110.285Z" fill="#1A191A"/>
<path d="M1301.08 117.765C1340.45 116.939 1382.13 117.627 1421.62 117.781L1421.55 518.31C1382.13 519.02 1340.75 518.364 1301.17 518.351C1299.13 387.246 1300.95 249.39 1301.08 117.765Z" fill="#1A191A"/>
</svg>
